<svg xmlns="http://www.w3.org/2000/svg" xmlns:v="https://svgstorm.com"
viewBox = "0 0 1024 1024"
width="1024"
height="1024">
<g fill="None" fill-opacity="0.0" stroke="#010101" stroke-opacity="1.00" stroke-width="0.3"><path d="
M 0.00 1024.00 
L 1024.00 1024.00
L 1024.00 0.00
L 0.00 0.00
L 0.00 1024.00
M 842.00 196.00 
C 841.56 217.98 833.19 242.63 825.03 262.03 C 816.86 281.42 807.43 299.17 796.08 316.08 C 784.74 332.99 774.36 349.21 761.70 364.70 C 749.03 380.18 735.48 393.41 721.75 407.75 C 708.02 422.09 693.72 435.33 678.77 447.77 C 663.82 460.21 642.09 478.34 651.32 498.68 C 660.55 519.02 674.10 529.62 685.25 547.75 C 696.40 565.87 708.67 581.13 716.00 601.00
C 719.32 607.09 722.36 613.27 725.00 620.00
C 734.98 645.44 741.80 670.06 747.00 697.00
C 749.29 708.88 750.42 722.40 751.00 735.00 C 751.58 747.60 752.81 762.72 751.00 775.00 C 749.19 787.28 748.97 800.24 742.00 809.00
C 719.74 743.68 693.29 676.65 641.00 627.00
C 625.16 613.46 608.65 600.05 588.00 597.00
C 597.51 589.21 608.99 583.46 619.00 576.00
C 619.69 575.21 620.34 572.55 620.00 573.00
C 608.86 578.51 596.43 582.44 585.31 588.31 C 574.18 594.17 562.24 598.38 551.26 604.26 C 540.27 610.13 528.49 614.86 517.32 620.32 C 506.15 625.78 495.03 632.84 483.92 637.92 C 472.82 643.01 462.87 651.12 451.77 655.77 C 440.67 660.42 431.76 670.49 421.25 675.25 C 410.75 680.02 402.67 693.82 391.78 694.22 C 380.88 694.61 367.69 680.19 357.00 678.00
C 391.37 634.63 439.26 605.40 482.00 573.00
C 507.10 547.89 531.27 531.25 545.92 497.92 C 560.58 464.60 571.53 419.47 559.00 382.00
C 578.71 386.72 599.94 383.28 619.00 379.00
C 623.74 377.40 629.81 374.85 635.00 373.00
C 676.18 351.72 718.64 329.94 751.25 294.25 C 783.86 258.55 813.82 224.36 835.00 182.00
C 836.56 178.89 837.85 173.60 842.00 173.00
C 843.41 180.06 843.85 189.36 842.00 196.00
M 564.00 182.00 
C 555.00 182.00 546.00 182.00 537.00 182.00
C 488.07 182.00 431.04 201.24 389.92 223.92 C 348.79 246.60 315.99 272.91 287.00 310.00
C 230.63 382.11 206.22 483.86 242.00 571.00
C 228.80 550.96 218.91 528.18 213.00 505.00
C 202.66 462.61 201.40 409.20 216.98 368.98 C 232.55 328.75 249.39 303.31 277.00 271.00
C 282.14 264.99 288.04 259.09 294.00 254.00
C 372.99 186.50 481.09 158.20 584.00 182.00
C 578.24 183.96 570.74 180.81 564.00 182.00
M 751.00 263.00 
C 758.53 268.38 750.83 272.46 746.25 277.25 C 741.66 282.04 736.94 286.78 732.00 291.00
C 730.32 292.44 726.11 297.82 724.00 298.00
C 717.80 298.52 712.77 285.93 706.75 283.25 C 700.74 280.57 694.86 272.87 688.25 269.75 C 681.65 266.62 675.59 260.96 668.92 257.08 C 662.25 253.20 655.09 248.70 647.77 245.23 C 640.45 241.76 633.46 238.34 625.78 235.22 C 618.09 232.11 610.64 229.02 602.32 226.68 C 594.00 224.33 585.86 221.74 576.93 220.07 C 567.99 218.40 558.16 216.70 548.93 215.07 C 539.69 213.45 529.40 212.81 519.78 212.22 C 510.16 211.64 497.67 211.57 488.00 212.00 C 478.33 212.43 468.72 213.99 459.33 215.33 C 449.94 216.67 441.06 218.51 432.00 221.00
C 429.33 221.73 426.23 223.95 423.00 224.00
C 423.64 220.14 429.28 221.02 432.00 219.00
C 468.43 206.54 505.44 197.47 545.00 196.00 C 584.56 194.54 628.16 201.62 663.23 213.77 C 698.30 225.93 721.46 241.90 751.00 263.00
M 407.00 251.00 
C 411.55 260.19 418.40 269.57 423.00 279.00
C 416.78 278.30 410.50 277.63 404.00 278.00
C 402.30 272.44 400.53 266.89 400.00 261.00
C 399.97 260.00 400.00 259.00 400.00 258.00
C 398.88 252.90 398.96 247.03 400.00 242.00
C 400.42 239.98 399.69 237.07 402.00 236.00
C 403.66 240.63 405.96 245.88 407.00 251.00
M 619.00 263.00 
C 642.58 279.17 650.80 308.92 637.70 334.70 C 624.59 360.47 596.00 371.69 568.32 363.68 C 540.64 355.66 526.12 327.18 530.00 300.00
C 531.62 257.45 588.25 241.91 619.00 263.00
M 248.00 284.00 
C 247.23 291.20 236.50 296.44 233.70 303.70 C 230.90 310.96 223.82 316.91 220.70 324.70 C 217.57 332.48 212.02 339.77 209.08 348.08 C 206.13 356.38 202.50 364.13 200.02 373.02 C 197.55 381.92 194.36 390.29 193.02 400.02 C 191.68 409.76 190.00 421.64 190.00 432.00
C 190.00 439.33 190.00 446.67 190.00 454.00
C 190.00 532.23 234.62 604.70 295.75 654.25 C 356.89 703.80 441.07 736.00 521.00 736.00
C 531.00 736.00 541.00 736.00 551.00 736.00
C 550.56 737.29 549.41 738.21 548.00 738.00
C 529.02 744.87 504.27 740.28 484.00 742.00 C 463.73 743.72 440.45 739.42 421.78 736.22 C 403.11 733.02 384.29 727.72 367.32 721.68 C 350.35 715.63 335.89 708.51 320.77 700.23 C 305.65 691.95 292.68 683.89 279.25 673.75 C 265.83 663.60 255.09 652.00 243.00 641.00
C 303.44 713.77 394.39 751.66 487.00 755.00
C 494.33 755.00 501.67 755.00 509.00 755.00
C 558.90 755.00 606.16 741.15 651.00 723.00
C 602.46 756.92 544.59 774.32 485.00 777.00
C 477.76 777.70 469.17 777.69 462.00 777.00
C 384.84 777.00 314.52 743.52 257.25 691.75 C 199.98 639.99 168.52 570.48 165.00 493.00 C 161.48 415.52 197.42 342.02 247.00 284.00
C 251.84 278.34 257.38 272.79 263.00 268.00
C 259.83 274.20 253.11 279.15 248.00 284.00
M 515.00 348.00 
C 575.53 399.72 543.17 493.09 493.75 539.75 C 444.34 586.41 381.97 609.94 341.00 666.00
C 336.38 665.52 332.58 661.47 329.00 659.00
C 319.29 652.67 315.09 647.65 321.77 637.77 C 328.45 627.89 328.89 621.50 335.30 613.30 C 341.71 605.11 345.59 598.30 352.25 591.25 C 358.92 584.21 364.34 578.50 371.25 572.25 C 378.16 566.00 385.72 560.72 392.75 554.75 C 399.77 548.78 406.68 543.66 413.75 537.75 C 420.82 531.85 428.43 526.64 435.25 520.25 C 442.06 513.85 447.67 507.78 453.75 500.75 C 459.84 493.73 466.07 486.95 470.77 478.77 C 475.47 470.59 480.60 463.14 483.78 453.78 C 486.96 444.41 490.61 432.32 491.00 422.00
C 491.18 417.35 491.00 412.66 491.00 408.00
C 491.00 398.96 488.44 389.06 484.69 381.31 C 480.95 373.55 475.84 369.26 469.75 363.25 C 463.67 357.24 457.83 353.57 450.31 349.70 C 442.78 345.82 436.11 342.35 427.92 339.08 C 419.74 335.80 412.10 333.38 402.98 331.02 C 393.85 328.67 386.44 326.10 376.00 325.00 C 365.56 323.90 359.83 321.45 347.78 320.22 C 335.73 319.00 339.43 312.53 349.08 308.08 C 358.72 303.62 362.37 300.59 372.02 298.02 C 381.68 295.46 389.77 292.98 400.00 293.00 C 410.23 293.02 421.61 293.11 431.01 294.99 C 440.40 296.87 449.44 298.03 458.07 300.93 C 466.71 303.83 477.63 307.64 464.32 312.32 C 451.01 317.00 465.17 322.97 472.68 324.32 C 480.18 325.67 488.49 331.42 495.70 334.30 C 502.90 337.18 509.03 342.90 515.00 348.00
M 816.00 341.00 
C 838.58 377.48 855.00 422.37 855.00 466.00
C 856.57 482.25 855.54 499.36 853.00 515.00
C 851.62 540.52 841.72 569.79 831.22 592.22 C 820.72 614.66 809.11 635.15 793.00 654.00
C 789.61 657.96 786.38 662.04 783.00 666.00
C 780.68 668.72 775.62 675.05 772.75 676.75 C 769.88 678.45 764.86 687.66 762.00 687.00
C 758.89 686.29 758.67 677.25 758.07 673.93 C 757.47 670.60 756.11 663.60 755.00 660.00
C 754.59 658.68 754.34 657.39 754.00 656.00
C 750.30 645.92 751.04 645.78 757.00 637.00
C 759.48 632.40 763.23 628.29 766.00 624.00
C 784.62 587.56 800.51 553.83 803.78 511.78 C 807.05 469.73 801.51 421.86 784.00 384.00
C 781.69 379.01 774.99 372.10 778.76 366.75 C 782.52 361.41 786.72 357.24 790.00 352.00
C 795.04 343.95 800.88 335.60 805.00 327.00
C 810.54 329.20 812.60 336.35 816.00 341.00
M 283.00 462.00 
C 264.90 444.57 262.40 415.12 270.32 392.32 C 278.24 369.52 293.84 358.92 311.25 342.25 C 328.65 325.57 362.62 329.90 363.00 359.00 C 363.38 388.10 340.62 396.87 316.98 403.98 C 293.33 411.08 281.42 438.95 283.00 462.00
M 396.00 338.00 
C 409.63 342.14 400.09 366.56 385.93 360.07 C 371.77 353.59 379.48 332.99 396.00 338.00
M 306.00 424.00 
C 321.09 411.93 336.55 412.46 355.07 408.07 C 373.60 403.68 391.87 422.06 384.22 440.22 C 376.58 458.38 355.86 460.58 339.98 455.02 C 324.09 449.47 313.04 438.90 306.00 424.00
M 684.00 710.00 
C 688.65 717.20 692.07 725.07 695.00 733.00
C 634.64 765.45 567.61 788.18 497.00 783.00
C 564.94 777.21 630.75 753.46 684.00 710.00 Z"/>
</g>
<g fill="None" fill-opacity="0.0" stroke="#56070C" stroke-opacity="1.00" stroke-width="0.3"><path d="
M 835.00 182.00 
C 836.41 179.72 838.74 177.56 840.00 175.00
C 843.29 176.21 841.56 180.37 842.00 183.00
C 842.09 187.32 842.09 191.68 842.00 196.00
C 843.85 189.36 843.41 180.06 842.00 173.00
C 837.85 173.60 836.56 178.89 835.00 182.00 Z"/>
</g>
<g fill="None" fill-opacity="0.0" stroke="#FAF9FA" stroke-opacity="1.00" stroke-width="0.3"><path d="
M 294.00 254.00 
C 288.41 259.59 282.54 265.46 277.00 271.00
C 249.39 303.31 232.55 328.75 216.98 368.98 C 201.40 409.20 202.66 462.61 213.00 505.00
C 214.92 507.68 215.18 504.58 218.00 507.00
C 215.29 470.63 210.96 431.51 223.00 397.00
C 222.85 411.64 215.93 429.61 219.00 445.00
C 220.79 431.81 225.09 416.88 229.98 404.98 C 234.86 393.07 236.95 378.52 243.92 367.92 C 250.90 357.33 255.03 344.89 261.92 334.92 C 268.82 324.96 276.18 312.63 287.00 310.00
C 315.99 272.91 348.79 246.60 389.92 223.92 C 431.04 201.24 488.07 182.00 537.00 182.00
C 545.49 181.18 555.58 181.18 564.00 182.00
C 570.74 180.81 578.24 183.96 584.00 182.00
C 481.09 158.20 372.99 186.50 294.00 254.00 Z"/>
</g>
<g fill="None" fill-opacity="0.0" stroke="#CF161E" stroke-opacity="1.00" stroke-width="0.3"><path d="
M 835.00 182.00 
C 813.82 224.36 783.86 258.55 751.25 294.25 C 718.64 329.94 676.18 351.72 635.00 373.00
C 630.19 375.48 624.51 377.74 619.00 379.00
C 599.94 383.28 578.71 386.72 559.00 382.00
C 571.53 419.47 560.58 464.60 545.92 497.92 C 531.27 531.25 507.10 547.89 482.00 573.00
C 475.34 579.66 470.86 587.62 462.75 592.75 C 454.64 597.88 451.21 606.37 443.25 612.25 C 435.28 618.13 430.60 628.17 426.00 635.00
C 467.40 609.23 512.62 586.96 554.00 559.00
C 546.03 554.85 555.68 552.22 558.00 549.00
C 560.37 548.45 563.14 550.53 563.00 553.00
C 607.09 532.72 636.57 490.79 657.00 449.00
C 648.10 452.14 641.05 459.14 633.00 464.00
C 644.53 449.47 662.80 441.97 675.25 427.25 C 687.70 412.53 703.62 401.63 714.00 386.00
C 698.37 396.24 684.05 410.45 667.00 418.00
C 686.06 402.76 704.88 388.94 722.75 371.75 C 740.63 354.56 755.74 336.43 771.25 317.25 C 786.77 298.07 799.00 277.24 811.31 255.31 C 823.61 233.37 833.25 205.96 842.00 183.00
C 841.56 180.37 843.29 176.21 840.00 175.00
C 838.74 177.56 836.41 179.72 835.00 182.00 Z"/>
</g>
<g fill="None" fill-opacity="0.0" stroke="#686663" stroke-opacity="1.00" stroke-width="0.3"><path d="
M 537.00 182.00 
C 546.00 182.00 555.00 182.00 564.00 182.00
C 555.58 181.18 545.49 181.18 537.00 182.00 Z"/>
</g>
<g fill="None" fill-opacity="0.0" stroke="#9C0C13" stroke-opacity="1.00" stroke-width="0.3"><path d="
M 482.00 573.00 
C 439.26 605.40 391.37 634.63 357.00 678.00
C 367.69 680.19 380.88 694.61 391.78 694.22 C 402.67 693.82 410.75 680.02 421.25 675.25 C 431.76 670.49 440.67 660.42 451.77 655.77 C 462.87 651.12 472.82 643.01 483.92 637.92 C 495.03 632.84 506.15 625.78 517.32 620.32 C 528.49 614.86 540.27 610.13 551.26 604.26 C 562.24 598.38 574.18 594.17 585.31 588.31 C 596.43 582.44 608.86 578.51 620.00 573.00
C 623.42 571.31 626.91 568.62 631.00 568.00
C 628.06 571.94 622.75 572.95 619.00 576.00
C 608.99 583.46 597.51 589.21 588.00 597.00
C 608.65 600.05 625.16 613.46 641.00 627.00
C 638.11 624.11 634.50 620.57 633.00 617.00
C 642.88 615.23 635.13 601.07 627.00 605.00
C 632.84 596.35 642.29 604.67 649.00 607.00
C 642.95 597.97 632.37 595.40 624.00 590.00
C 626.33 584.50 628.44 581.36 632.30 576.30 C 636.17 571.25 635.78 567.05 635.33 561.33 C 634.89 555.60 650.17 558.29 646.67 551.33 C 643.17 544.37 641.23 544.72 637.00 539.00
C 652.15 540.04 661.64 548.84 669.25 561.75 C 676.87 574.65 684.68 584.28 691.25 597.75 C 697.83 611.22 704.81 623.38 708.98 638.02 C 713.14 652.66 720.83 666.06 723.33 681.67 C 725.83 697.29 732.46 711.99 734.93 728.07 C 737.39 744.16 739.35 762.74 742.00 779.00
C 742.25 752.99 741.21 720.69 747.00 697.00
C 741.80 670.06 734.98 645.44 725.00 620.00
C 721.82 614.04 718.42 607.55 716.00 601.00
C 708.67 581.13 696.40 565.87 685.25 547.75 C 674.10 529.62 660.55 519.02 651.32 498.68 C 642.09 478.34 663.82 460.21 678.77 447.77 C 693.72 435.33 708.02 422.09 721.75 407.75 C 735.48 393.41 749.03 380.18 761.70 364.70 C 774.36 349.21 784.74 332.99 796.08 316.08 C 807.43 299.17 816.86 281.42 825.03 262.03 C 833.19 242.63 841.56 217.98 842.00 196.00
C 842.09 191.68 842.09 187.32 842.00 183.00
C 833.25 205.96 823.61 233.37 811.31 255.31 C 799.00 277.24 786.77 298.07 771.25 317.25 C 755.74 336.43 740.63 354.56 722.75 371.75 C 704.88 388.94 686.06 402.76 667.00 418.00
C 684.05 410.45 698.37 396.24 714.00 386.00
C 703.62 401.63 687.70 412.53 675.25 427.25 C 662.80 441.97 644.53 449.47 633.00 464.00
C 641.05 459.14 648.10 452.14 657.00 449.00
C 636.57 490.79 607.09 532.72 563.00 553.00
C 563.14 550.53 560.37 548.45 558.00 549.00
C 555.68 552.22 546.03 554.85 554.00 559.00
C 512.62 586.96 467.40 609.23 426.00 635.00
C 430.60 628.17 435.28 618.13 443.25 612.25 C 451.21 606.37 454.64 597.88 462.75 592.75 C 470.86 587.62 475.34 579.66 482.00 573.00 Z"/>
</g>
<g fill="None" fill-opacity="0.0" stroke="#CF1820" stroke-opacity="1.00" stroke-width="0.3"><path d="
M 432.00 219.00 
C 431.04 219.89 431.92 221.14 432.00 221.00
C 441.06 218.51 449.94 216.67 459.33 215.33 C 468.72 213.99 478.33 212.43 488.00 212.00 C 497.67 211.57 510.16 211.64 519.78 212.22 C 529.40 212.81 539.69 213.45 548.93 215.07 C 558.16 216.70 567.99 218.40 576.93 220.07 C 585.86 221.74 594.00 224.33 602.32 226.68 C 610.64 229.02 618.09 232.11 625.78 235.22 C 633.46 238.34 640.45 241.76 647.77 245.23 C 655.09 248.70 662.25 253.20 668.92 257.08 C 675.59 260.96 681.65 266.62 688.25 269.75 C 694.86 272.87 700.74 280.57 706.75 283.25 C 712.77 285.93 717.80 298.52 724.00 298.00
C 722.39 290.97 720.96 279.07 713.00 275.00
C 714.02 272.86 716.72 269.91 719.00 269.00
C 715.86 264.67 710.70 260.96 707.00 257.00
C 719.19 262.37 730.40 271.83 741.00 280.00
C 745.81 276.64 749.23 271.31 754.00 268.00
C 754.13 266.45 752.07 263.97 751.00 263.00
C 721.46 241.90 698.30 225.93 663.23 213.77 C 628.16 201.62 584.56 194.54 545.00 196.00 C 505.44 197.47 468.43 206.54 432.00 219.00 Z"/>
</g>
<g fill="None" fill-opacity="0.0" stroke="#5B0A12" stroke-opacity="1.00" stroke-width="0.3"><path d="
M 432.00 221.00 
C 431.92 221.14 431.04 219.89 432.00 219.00
C 429.28 221.02 423.64 220.14 423.00 224.00
C 426.23 223.95 429.33 221.73 432.00 221.00 Z"/>
</g>
<g fill="None" fill-opacity="0.0" stroke="#D01A23" stroke-opacity="1.00" stroke-width="0.3"><path d="
M 400.00 242.00 
C 399.52 247.23 400.00 252.74 400.00 258.00
C 400.00 259.00 399.97 260.00 400.00 261.00
C 401.36 264.96 406.25 262.03 409.00 265.00
C 404.50 260.52 410.04 255.79 407.00 251.00
C 405.96 245.88 403.66 240.63 402.00 236.00
C 399.69 237.07 400.42 239.98 400.00 242.00 Z"/>
</g>
<g fill="None" fill-opacity="0.0" stroke="#620D12" stroke-opacity="1.00" stroke-width="0.3"><path d="
M 400.00 258.00 
C 400.00 252.74 399.52 247.23 400.00 242.00
C 398.96 247.03 398.88 252.90 400.00 258.00 Z"/>
</g>
<g fill="None" fill-opacity="0.0" stroke="#A00D15" stroke-opacity="1.00" stroke-width="0.3"><path d="
M 400.00 261.00 
C 400.53 266.89 402.30 272.44 404.00 278.00
C 410.50 277.63 416.78 278.30 423.00 279.00
C 418.40 269.57 411.55 260.19 407.00 251.00
C 410.04 255.79 404.50 260.52 409.00 265.00
C 406.25 262.03 401.36 264.96 400.00 261.00 Z"/>
</g>
<g fill="None" fill-opacity="0.0" stroke="#CF091F" stroke-opacity="1.00" stroke-width="0.3"><path d="
M 530.00 300.00 
C 529.77 305.93 528.08 315.20 536.00 316.00
C 536.40 325.34 541.72 329.12 549.68 333.32 C 557.64 337.52 567.94 332.10 575.74 333.60 C 583.55 335.10 588.61 334.47 595.23 333.79 C 601.85 333.11 608.91 337.00 614.30 330.30 C 619.68 323.59 626.00 322.14 628.31 313.31 C 630.61 304.47 630.58 294.72 627.67 286.33 C 624.77 277.93 624.01 270.53 619.00 263.00
C 588.25 241.91 531.62 257.45 530.00 300.00 Z"/>
</g>
<g fill="None" fill-opacity="0.0" stroke="#716E72" stroke-opacity="1.00" stroke-width="0.3"><path d="
M 277.00 271.00 
C 282.54 265.46 288.41 259.59 294.00 254.00
C 288.04 259.09 282.14 264.99 277.00 271.00 Z"/>
</g>
<g fill="None" fill-opacity="0.0" stroke="#AA0D15" stroke-opacity="1.00" stroke-width="0.3"><path d="
M 724.00 298.00 
C 726.11 297.82 730.32 292.44 732.00 291.00
C 735.07 287.93 740.28 283.16 742.75 279.75 C 745.22 276.35 753.67 272.02 754.00 268.00
C 749.23 271.31 745.81 276.64 741.00 280.00
C 730.40 271.83 719.19 262.37 707.00 257.00
C 710.70 260.96 715.86 264.67 719.00 269.00
C 716.72 269.91 714.02 272.86 713.00 275.00
C 720.96 279.07 722.39 290.97 724.00 298.00 Z"/>
</g>
<g fill="None" fill-opacity="0.0" stroke="#A50B16" stroke-opacity="1.00" stroke-width="0.3"><path d="
M 530.00 300.00 
C 526.12 327.18 540.64 355.66 568.32 363.68 C 596.00 371.69 624.59 360.47 637.70 334.70 C 650.80 308.92 642.58 279.17 619.00 263.00
C 624.01 270.53 624.77 277.93 627.67 286.33 C 630.58 294.72 630.61 304.47 628.31 313.31 C 626.00 322.14 619.68 323.59 614.30 330.30 C 608.91 337.00 601.85 333.11 595.23 333.79 C 588.61 334.47 583.55 335.10 575.74 333.60 C 567.94 332.10 557.64 337.52 549.68 333.32 C 541.72 329.12 536.40 325.34 536.00 316.00
C 528.08 315.20 529.77 305.93 530.00 300.00 Z"/>
</g>
<g fill="None" fill-opacity="0.0" stroke="#3F0608" stroke-opacity="1.00" stroke-width="0.3"><path d="
M 754.00 268.00 
C 753.67 272.02 745.22 276.35 742.75 279.75 C 740.28 283.16 735.07 287.93 732.00 291.00
C 736.94 286.78 741.66 282.04 746.25 277.25 C 750.83 272.46 758.53 268.38 751.00 263.00
C 752.07 263.97 754.13 266.45 754.00 268.00 Z"/>
</g>
<g fill="None" fill-opacity="0.0" stroke="#515253" stroke-opacity="1.00" stroke-width="0.3"><path d="
M 247.00 284.00 
C 247.16 283.77 248.00 284.00 248.00 284.00
C 253.11 279.15 259.83 274.20 263.00 268.00
C 257.38 272.79 251.84 278.34 247.00 284.00 Z"/>
</g>
<g fill="None" fill-opacity="0.0" stroke="#F6F6F7" stroke-opacity="1.00" stroke-width="0.3"><path d="
M 462.00 777.00 
C 469.67 777.00 477.33 777.00 485.00 777.00
C 544.59 774.32 602.46 756.92 651.00 723.00
C 606.16 741.15 558.90 755.00 509.00 755.00
C 502.08 755.67 493.85 755.66 487.00 755.00
C 394.39 751.66 303.44 713.77 243.00 641.00
C 255.09 652.00 265.83 663.60 279.25 673.75 C 292.68 683.89 305.65 691.95 320.77 700.23 C 335.89 708.51 350.35 715.63 367.32 721.68 C 384.29 727.72 403.11 733.02 421.78 736.22 C 440.45 739.42 463.73 743.72 484.00 742.00 C 504.27 740.28 529.02 744.87 548.00 738.00
C 540.63 738.75 528.38 736.71 521.00 736.00
C 441.07 736.00 356.89 703.80 295.75 654.25 C 234.62 604.70 190.00 532.23 190.00 454.00
C 189.33 447.08 189.34 438.85 190.00 432.00
C 190.00 421.64 191.68 409.76 193.02 400.02 C 194.36 390.29 197.55 381.92 200.02 373.02 C 202.50 364.13 206.13 356.38 209.08 348.08 C 212.02 339.77 217.57 332.48 220.70 324.70 C 223.82 316.91 230.90 310.96 233.70 303.70 C 236.50 296.44 247.23 291.20 248.00 284.00
C 248.00 284.00 247.16 283.77 247.00 284.00
C 197.42 342.02 161.48 415.52 165.00 493.00 C 168.52 570.48 199.98 639.99 257.25 691.75 C 314.52 743.52 384.84 777.00 462.00 777.00 Z"/>
</g>
<g fill="None" fill-opacity="0.0" stroke="#FBFBFB" stroke-opacity="1.00" stroke-width="0.3"><path d="
M 491.00 408.00 
C 491.43 412.48 491.64 417.54 491.00 422.00
C 490.61 432.32 486.96 444.41 483.78 453.78 C 480.60 463.14 475.47 470.59 470.77 478.77 C 466.07 486.95 459.84 493.73 453.75 500.75 C 447.67 507.78 442.06 513.85 435.25 520.25 C 428.43 526.64 420.82 531.85 413.75 537.75 C 406.68 543.66 399.77 548.78 392.75 554.75 C 385.72 560.72 378.16 566.00 371.25 572.25 C 364.34 578.50 358.92 584.21 352.25 591.25 C 345.59 598.30 341.71 605.11 335.30 613.30 C 328.89 621.50 328.45 627.89 321.77 637.77 C 315.09 647.65 319.29 652.67 329.00 659.00
C 334.05 658.46 336.59 644.84 340.97 640.97 C 345.36 637.11 349.41 628.96 354.75 624.75 C 360.09 620.55 364.45 614.13 370.23 610.23 C 376.01 606.33 381.91 600.78 387.75 596.75 C 393.58 592.71 398.86 587.77 404.75 583.75 C 410.64 579.73 417.44 576.66 423.08 572.08 C 428.72 567.50 434.84 563.83 440.75 559.75 C 446.65 555.66 454.33 552.70 459.75 547.75 C 465.16 542.79 471.09 539.29 476.25 534.25 C 481.41 529.20 486.51 524.71 491.25 519.25 C 495.98 513.79 501.37 508.64 505.75 502.75 C 510.13 496.86 513.33 490.98 517.92 484.92 C 522.50 478.85 524.44 471.99 527.98 464.98 C 531.51 457.96 533.83 451.12 535.98 442.98 C 538.13 434.83 539.10 424.00 539.00 415.00 C 538.90 406.00 538.05 396.02 536.02 387.98 C 534.00 379.93 531.21 373.53 527.22 366.78 C 523.24 360.02 520.54 353.54 515.00 348.00
C 509.03 342.90 502.90 337.18 495.70 334.30 C 488.49 331.42 480.18 325.67 472.68 324.32 C 465.17 322.97 451.01 317.00 464.32 312.32 C 477.63 307.64 466.71 303.83 458.07 300.93 C 449.44 298.03 440.40 296.87 431.01 294.99 C 421.61 293.11 410.23 293.02 400.00 293.00 C 389.77 292.98 381.68 295.46 372.02 298.02 C 362.37 300.59 358.72 303.62 349.08 308.08 C 339.43 312.53 335.73 319.00 347.78 320.22 C 359.83 321.45 365.56 323.90 376.00 325.00 C 386.44 326.10 393.85 328.67 402.98 331.02 C 412.10 333.38 419.74 335.80 427.92 339.08 C 436.11 342.35 442.78 345.82 450.31 349.70 C 457.83 353.57 463.67 357.24 469.75 363.25 C 475.84 369.26 480.95 373.55 484.69 381.31 C 488.44 389.06 491.00 398.96 491.00 408.00 Z"/>
</g>
<g fill="None" fill-opacity="0.0" stroke="#D0D0D0" stroke-opacity="1.00" stroke-width="0.3"><path d="
M 213.00 505.00 
C 218.91 528.18 228.80 550.96 242.00 571.00
C 206.22 483.86 230.63 382.11 287.00 310.00
C 276.18 312.63 268.82 324.96 261.92 334.92 C 255.03 344.89 250.90 357.33 243.92 367.92 C 236.95 378.52 234.86 393.07 229.98 404.98 C 225.09 416.88 220.79 431.81 219.00 445.00
C 215.93 429.61 222.85 411.64 223.00 397.00
C 210.96 431.51 215.29 470.63 218.00 507.00
C 215.18 504.58 214.92 507.68 213.00 505.00 Z"/>
</g>
<g fill="None" fill-opacity="0.0" stroke="#720509" stroke-opacity="1.00" stroke-width="0.3"><path d="
M 790.00 352.00 
C 791.33 350.72 793.14 349.10 795.00 349.00
C 796.99 352.06 800.39 354.33 801.00 358.00
C 806.90 354.36 809.77 345.66 812.00 339.00
C 813.82 338.45 814.47 340.75 816.00 341.00
C 812.60 336.35 810.54 329.20 805.00 327.00
C 800.88 335.60 795.04 343.95 790.00 352.00 Z"/>
</g>
<g fill="None" fill-opacity="0.0" stroke="#FAFAFB" stroke-opacity="1.00" stroke-width="0.3"><path d="
M 283.00 462.00 
C 281.42 438.95 293.33 411.08 316.98 403.98 C 340.62 396.87 363.38 388.10 363.00 359.00 C 362.62 329.90 328.65 325.57 311.25 342.25 C 293.84 358.92 278.24 369.52 270.32 392.32 C 262.40 415.12 264.90 444.57 283.00 462.00 Z"/>
</g>
<g fill="None" fill-opacity="0.0" stroke="#F5F5F5" stroke-opacity="1.00" stroke-width="0.3"><path d="
M 396.00 338.00 
C 379.48 332.99 371.77 353.59 385.93 360.07 C 400.09 366.56 409.63 342.14 396.00 338.00 Z"/>
</g>
<g fill="None" fill-opacity="0.0" stroke="#970C11" stroke-opacity="1.00" stroke-width="0.3"><path d="
M 790.00 352.00 
C 786.72 357.24 782.52 361.41 778.76 366.75 C 774.99 372.10 781.69 379.01 784.00 384.00
C 784.82 374.95 793.00 373.80 796.92 364.92 C 800.84 356.04 807.11 368.47 808.93 376.07 C 810.74 383.68 816.12 390.77 817.78 399.22 C 819.43 407.67 822.28 417.01 823.98 426.02 C 825.67 435.04 826.59 446.37 827.00 456.00 C 827.41 465.63 828.83 477.15 828.00 487.00 C 827.17 496.85 826.59 507.69 825.02 517.02 C 823.45 526.36 822.03 534.96 819.68 543.68 C 817.33 552.40 815.10 560.56 811.69 568.69 C 808.29 576.83 805.49 583.91 802.00 592.00
C 804.22 588.49 805.50 588.70 809.00 587.00
C 806.65 595.78 801.97 603.61 797.70 611.70 C 793.42 619.78 789.30 627.47 784.08 635.08 C 778.86 642.70 776.76 650.33 771.08 658.08 C 765.39 665.82 765.22 681.40 774.75 672.75 C 784.28 664.11 784.02 661.52 793.00 654.00
C 809.11 635.15 820.72 614.66 831.22 592.22 C 841.72 569.79 851.62 540.52 853.00 515.00
C 853.88 498.83 855.00 482.73 855.00 466.00
C 855.00 422.37 838.58 377.48 816.00 341.00
C 814.47 340.75 813.82 338.45 812.00 339.00
C 809.77 345.66 806.90 354.36 801.00 358.00
C 800.39 354.33 796.99 352.06 795.00 349.00
C 793.14 349.10 791.33 350.72 790.00 352.00 Z"/>
</g>
<g fill="None" fill-opacity="0.0" stroke="#B6B5B6" stroke-opacity="1.00" stroke-width="0.3"><path d="
M 329.00 659.00 
C 332.58 661.47 336.38 665.52 341.00 666.00
C 381.97 609.94 444.34 586.41 493.75 539.75 C 543.17 493.09 575.53 399.72 515.00 348.00
C 520.54 353.54 523.24 360.02 527.22 366.78 C 531.21 373.53 534.00 379.93 536.02 387.98 C 538.05 396.02 538.90 406.00 539.00 415.00 C 539.10 424.00 538.13 434.83 535.98 442.98 C 533.83 451.12 531.51 457.96 527.98 464.98 C 524.44 471.99 522.50 478.85 517.92 484.92 C 513.33 490.98 510.13 496.86 505.75 502.75 C 501.37 508.64 495.98 513.79 491.25 519.25 C 486.51 524.71 481.41 529.20 476.25 534.25 C 471.09 539.29 465.16 542.79 459.75 547.75 C 454.33 552.70 446.65 555.66 440.75 559.75 C 434.84 563.83 428.72 567.50 423.08 572.08 C 417.44 576.66 410.64 579.73 404.75 583.75 C 398.86 587.77 393.58 592.71 387.75 596.75 C 381.91 600.78 376.01 606.33 370.23 610.23 C 364.45 614.13 360.09 620.55 354.75 624.75 C 349.41 628.96 345.36 637.11 340.97 640.97 C 336.59 644.84 334.05 658.46 329.00 659.00 Z"/>
</g>
<g fill="None" fill-opacity="0.0" stroke="#D21A20" stroke-opacity="1.00" stroke-width="0.3"><path d="
M 784.00 384.00 
C 801.51 421.86 807.05 469.73 803.78 511.78 C 800.51 553.83 784.62 587.56 766.00 624.00
C 763.48 628.92 760.35 633.83 757.00 638.00
C 761.07 642.80 758.86 650.02 761.00 655.00
C 767.36 647.00 773.46 638.53 780.00 631.00
C 787.65 618.11 796.03 605.84 802.00 592.00
C 805.49 583.91 808.29 576.83 811.69 568.69 C 815.10 560.56 817.33 552.40 819.68 543.68 C 822.03 534.96 823.45 526.36 825.02 517.02 C 826.59 507.69 827.17 496.85 828.00 487.00 C 828.83 477.15 827.41 465.63 827.00 456.00 C 826.59 446.37 825.67 435.04 823.98 426.02 C 822.28 417.01 819.43 407.67 817.78 399.22 C 816.12 390.77 810.74 383.68 808.93 376.07 C 807.11 368.47 800.84 356.04 796.92 364.92 C 793.00 373.80 784.82 374.95 784.00 384.00 Z"/>
</g>
<g fill="None" fill-opacity="0.0" stroke="#660E11" stroke-opacity="1.00" stroke-width="0.3"><path d="
M 619.00 379.00 
C 624.51 377.74 630.19 375.48 635.00 373.00
C 629.81 374.85 623.74 377.40 619.00 379.00 Z"/>
</g>
<g fill="None" fill-opacity="0.0" stroke="#FAFAFA" stroke-opacity="1.00" stroke-width="0.3"><path d="
M 306.00 424.00 
C 313.04 438.90 324.09 449.47 339.98 455.02 C 355.86 460.58 376.58 458.38 384.22 440.22 C 391.87 422.06 373.60 403.68 355.07 408.07 C 336.55 412.46 321.09 411.93 306.00 424.00 Z"/>
</g>
<g fill="None" fill-opacity="0.0" stroke="#726F73" stroke-opacity="1.00" stroke-width="0.3"><path d="
M 491.00 422.00 
C 491.64 417.54 491.43 412.48 491.00 408.00
C 491.00 412.66 491.18 417.35 491.00 422.00 Z"/>
</g>
<g fill="None" fill-opacity="0.0" stroke="#636463" stroke-opacity="1.00" stroke-width="0.3"><path d="
M 190.00 454.00 
C 190.00 446.67 190.00 439.33 190.00 432.00
C 189.34 438.85 189.33 447.08 190.00 454.00 Z"/>
</g>
<g fill="None" fill-opacity="0.0" stroke="#410406" stroke-opacity="1.00" stroke-width="0.3"><path d="
M 853.00 515.00 
C 855.54 499.36 856.57 482.25 855.00 466.00
C 855.00 482.73 853.88 498.83 853.00 515.00 Z"/>
</g>
<g fill="None" fill-opacity="0.0" stroke="#C8131E" stroke-opacity="1.00" stroke-width="0.3"><path d="
M 641.00 627.00 
C 693.29 676.65 719.74 743.68 742.00 809.00
C 748.97 800.24 749.19 787.28 751.00 775.00 C 752.81 762.72 751.58 747.60 751.00 735.00 C 750.42 722.40 749.29 708.88 747.00 697.00
C 741.21 720.69 742.25 752.99 742.00 779.00
C 739.35 762.74 737.39 744.16 734.93 728.07 C 732.46 711.99 725.83 697.29 723.33 681.67 C 720.83 666.06 713.14 652.66 708.98 638.02 C 704.81 623.38 697.83 611.22 691.25 597.75 C 684.68 584.28 676.87 574.65 669.25 561.75 C 661.64 548.84 652.15 540.04 637.00 539.00
C 641.23 544.72 643.17 544.37 646.67 551.33 C 650.17 558.29 634.89 555.60 635.33 561.33 C 635.78 567.05 636.17 571.25 632.30 576.30 C 628.44 581.36 626.33 584.50 624.00 590.00
C 632.37 595.40 642.95 597.97 649.00 607.00
C 642.29 604.67 632.84 596.35 627.00 605.00
C 635.13 601.07 642.88 615.23 633.00 617.00
C 634.50 620.57 638.11 624.11 641.00 627.00 Z"/>
</g>
<g fill="None" fill-opacity="0.0" stroke="#5F0606" stroke-opacity="1.00" stroke-width="0.3"><path d="
M 620.00 573.00 
C 620.34 572.55 619.69 575.21 619.00 576.00
C 622.75 572.95 628.06 571.94 631.00 568.00
C 626.91 568.62 623.42 571.31 620.00 573.00 Z"/>
</g>
<g fill="None" fill-opacity="0.0" stroke="#6F0609" stroke-opacity="1.00" stroke-width="0.3"><path d="
M 802.00 592.00 
C 796.03 605.84 787.65 618.11 780.00 631.00
C 773.44 642.06 763.71 651.08 757.00 662.00
C 755.74 661.92 756.44 659.94 755.00 660.00
C 756.11 663.60 757.47 670.60 758.07 673.93 C 758.67 677.25 758.89 686.29 762.00 687.00
C 768.19 679.36 776.13 672.87 783.00 666.00
C 786.38 662.04 789.61 657.96 793.00 654.00
C 784.02 661.52 784.28 664.11 774.75 672.75 C 765.22 681.40 765.39 665.82 771.08 658.08 C 776.76 650.33 778.86 642.70 784.08 635.08 C 789.30 627.47 793.42 619.78 797.70 611.70 C 801.97 603.61 806.65 595.78 809.00 587.00
C 805.50 588.70 804.22 588.49 802.00 592.00 Z"/>
</g>
<g fill="None" fill-opacity="0.0" stroke="#4C050A" stroke-opacity="1.00" stroke-width="0.3"><path d="
M 725.00 620.00 
C 722.36 613.27 719.32 607.09 716.00 601.00
C 718.42 607.55 721.82 614.04 725.00 620.00 Z"/>
</g>
<g fill="None" fill-opacity="0.0" stroke="#9B0E14" stroke-opacity="1.00" stroke-width="0.3"><path d="
M 757.00 637.00 
C 752.30 645.71 751.64 646.26 754.00 656.00
C 754.34 657.39 754.59 658.68 755.00 660.00
C 756.44 659.94 755.74 661.92 757.00 662.00
C 763.71 651.08 773.44 642.06 780.00 631.00
C 773.46 638.53 767.36 647.00 761.00 655.00
C 758.86 650.02 761.07 642.80 757.00 638.00
C 760.35 633.83 763.48 628.92 766.00 624.00
C 763.23 628.29 759.48 632.40 757.00 637.00 Z"/>
</g>
<g fill="None" fill-opacity="0.0" stroke="#4B0508" stroke-opacity="1.00" stroke-width="0.3"><path d="
M 754.00 656.00 
C 751.64 646.26 752.30 645.71 757.00 637.00
C 751.04 645.78 750.30 645.92 754.00 656.00 Z"/>
</g>
<g fill="None" fill-opacity="0.0" stroke="#300204" stroke-opacity="1.00" stroke-width="0.3"><path d="
M 762.00 687.00 
C 764.86 687.66 769.88 678.45 772.75 676.75 C 775.62 675.05 780.68 668.72 783.00 666.00
C 776.13 672.87 768.19 679.36 762.00 687.00 Z"/>
</g>
<g fill="None" fill-opacity="0.0" stroke="#81090D" stroke-opacity="1.00" stroke-width="0.3"><path d="
M 684.00 710.00 
C 630.75 753.46 564.94 777.21 497.00 783.00
C 567.61 788.18 634.64 765.45 695.00 733.00
C 692.07 725.07 688.65 717.20 684.00 710.00 Z"/>
</g>
<g fill="None" fill-opacity="0.0" stroke="#757677" stroke-opacity="1.00" stroke-width="0.3"><path d="
M 548.00 738.00 
C 549.41 738.21 550.56 737.29 551.00 736.00
C 541.00 736.00 531.00 736.00 521.00 736.00
C 528.38 736.71 540.63 738.75 548.00 738.00 Z"/>
</g>
<g fill="None" fill-opacity="0.0" stroke="#888A89" stroke-opacity="1.00" stroke-width="0.3"><path d="
M 509.00 755.00 
C 501.67 755.00 494.33 755.00 487.00 755.00
C 493.85 755.66 502.08 755.67 509.00 755.00 Z"/>
</g>
<g fill="None" fill-opacity="0.0" stroke="#646566" stroke-opacity="1.00" stroke-width="0.3"><path d="
M 485.00 777.00 
C 477.33 777.00 469.67 777.00 462.00 777.00
C 469.17 777.69 477.76 777.70 485.00 777.00 Z"/>
</g>
<g fill="#010101" fill-opacity="0.0" stroke="None">
<path d="
M 0.00 1024.00 
L 1024.00 1024.00
L 1024.00 0.00
L 0.00 0.00
L 0.00 1024.00
M 842.00 196.00 
C 841.56 217.98 833.19 242.63 825.03 262.03 C 816.86 281.42 807.43 299.17 796.08 316.08 C 784.74 332.99 774.36 349.21 761.70 364.70 C 749.03 380.18 735.48 393.41 721.75 407.75 C 708.02 422.09 693.72 435.33 678.77 447.77 C 663.82 460.21 642.09 478.34 651.32 498.68 C 660.55 519.02 674.10 529.62 685.25 547.75 C 696.40 565.87 708.67 581.13 716.00 601.00
C 719.32 607.09 722.36 613.27 725.00 620.00
C 734.98 645.44 741.80 670.06 747.00 697.00
C 749.29 708.88 750.42 722.40 751.00 735.00 C 751.58 747.60 752.81 762.72 751.00 775.00 C 749.19 787.28 748.97 800.24 742.00 809.00
C 719.74 743.68 693.29 676.65 641.00 627.00
C 625.16 613.46 608.65 600.05 588.00 597.00
C 597.51 589.21 608.99 583.46 619.00 576.00
C 619.69 575.21 620.34 572.55 620.00 573.00
C 608.86 578.51 596.43 582.44 585.31 588.31 C 574.18 594.17 562.24 598.38 551.26 604.26 C 540.27 610.13 528.49 614.86 517.32 620.32 C 506.15 625.78 495.03 632.84 483.92 637.92 C 472.82 643.01 462.87 651.12 451.77 655.77 C 440.67 660.42 431.76 670.49 421.25 675.25 C 410.75 680.02 402.67 693.82 391.78 694.22 C 380.88 694.61 367.69 680.19 357.00 678.00
C 391.37 634.63 439.26 605.40 482.00 573.00
C 507.10 547.89 531.27 531.25 545.92 497.92 C 560.58 464.60 571.53 419.47 559.00 382.00
C 578.71 386.72 599.94 383.28 619.00 379.00
C 623.74 377.40 629.81 374.85 635.00 373.00
C 676.18 351.72 718.64 329.94 751.25 294.25 C 783.86 258.55 813.82 224.36 835.00 182.00
C 836.56 178.89 837.85 173.60 842.00 173.00
C 843.41 180.06 843.85 189.36 842.00 196.00
M 564.00 182.00 
C 555.00 182.00 546.00 182.00 537.00 182.00
C 488.07 182.00 431.04 201.24 389.92 223.92 C 348.79 246.60 315.99 272.91 287.00 310.00
C 230.63 382.11 206.22 483.86 242.00 571.00
C 228.80 550.96 218.91 528.18 213.00 505.00
C 202.66 462.61 201.40 409.20 216.98 368.98 C 232.55 328.75 249.39 303.31 277.00 271.00
C 282.14 264.99 288.04 259.09 294.00 254.00
C 372.99 186.50 481.09 158.20 584.00 182.00
C 578.24 183.96 570.74 180.81 564.00 182.00
M 751.00 263.00 
C 758.53 268.38 750.83 272.46 746.25 277.25 C 741.66 282.04 736.94 286.78 732.00 291.00
C 730.32 292.44 726.11 297.82 724.00 298.00
C 717.80 298.52 712.77 285.93 706.75 283.25 C 700.74 280.57 694.86 272.87 688.25 269.75 C 681.65 266.62 675.59 260.96 668.92 257.08 C 662.25 253.20 655.09 248.70 647.77 245.23 C 640.45 241.76 633.46 238.34 625.78 235.22 C 618.09 232.11 610.64 229.02 602.32 226.68 C 594.00 224.33 585.86 221.74 576.93 220.07 C 567.99 218.40 558.16 216.70 548.93 215.07 C 539.69 213.45 529.40 212.81 519.78 212.22 C 510.16 211.64 497.67 211.57 488.00 212.00 C 478.33 212.43 468.72 213.99 459.33 215.33 C 449.94 216.67 441.06 218.51 432.00 221.00
C 429.33 221.73 426.23 223.95 423.00 224.00
C 423.64 220.14 429.28 221.02 432.00 219.00
C 468.43 206.54 505.44 197.47 545.00 196.00 C 584.56 194.54 628.16 201.62 663.23 213.77 C 698.30 225.93 721.46 241.90 751.00 263.00
M 407.00 251.00 
C 411.55 260.19 418.40 269.57 423.00 279.00
C 416.78 278.30 410.50 277.63 404.00 278.00
C 402.30 272.44 400.53 266.89 400.00 261.00
C 399.97 260.00 400.00 259.00 400.00 258.00
C 398.88 252.90 398.96 247.03 400.00 242.00
C 400.42 239.98 399.69 237.07 402.00 236.00
C 403.66 240.63 405.96 245.88 407.00 251.00
M 619.00 263.00 
C 642.58 279.17 650.80 308.92 637.70 334.70 C 624.59 360.47 596.00 371.69 568.32 363.68 C 540.64 355.66 526.12 327.18 530.00 300.00
C 531.62 257.45 588.25 241.91 619.00 263.00
M 248.00 284.00 
C 247.23 291.20 236.50 296.44 233.70 303.70 C 230.90 310.96 223.82 316.91 220.70 324.70 C 217.57 332.48 212.02 339.77 209.08 348.08 C 206.13 356.38 202.50 364.13 200.02 373.02 C 197.55 381.92 194.36 390.29 193.02 400.02 C 191.68 409.76 190.00 421.64 190.00 432.00
C 190.00 439.33 190.00 446.67 190.00 454.00
C 190.00 532.23 234.62 604.70 295.75 654.25 C 356.89 703.80 441.07 736.00 521.00 736.00
C 531.00 736.00 541.00 736.00 551.00 736.00
C 550.56 737.29 549.41 738.21 548.00 738.00
C 529.02 744.87 504.27 740.28 484.00 742.00 C 463.73 743.72 440.45 739.42 421.78 736.22 C 403.11 733.02 384.29 727.72 367.32 721.68 C 350.35 715.63 335.89 708.51 320.77 700.23 C 305.65 691.95 292.68 683.89 279.25 673.75 C 265.83 663.60 255.09 652.00 243.00 641.00
C 303.44 713.77 394.39 751.66 487.00 755.00
C 494.33 755.00 501.67 755.00 509.00 755.00
C 558.90 755.00 606.16 741.15 651.00 723.00
C 602.46 756.92 544.59 774.32 485.00 777.00
C 477.76 777.70 469.17 777.69 462.00 777.00
C 384.84 777.00 314.52 743.52 257.25 691.75 C 199.98 639.99 168.52 570.48 165.00 493.00 C 161.48 415.52 197.42 342.02 247.00 284.00
C 251.84 278.34 257.38 272.79 263.00 268.00
C 259.83 274.20 253.11 279.15 248.00 284.00
M 515.00 348.00 
C 575.53 399.72 543.17 493.09 493.75 539.75 C 444.34 586.41 381.97 609.94 341.00 666.00
C 336.38 665.52 332.58 661.47 329.00 659.00
C 319.29 652.67 315.09 647.65 321.77 637.77 C 328.45 627.89 328.89 621.50 335.30 613.30 C 341.71 605.11 345.59 598.30 352.25 591.25 C 358.92 584.21 364.34 578.50 371.25 572.25 C 378.16 566.00 385.72 560.72 392.75 554.75 C 399.77 548.78 406.68 543.66 413.75 537.75 C 420.82 531.85 428.43 526.64 435.25 520.25 C 442.06 513.85 447.67 507.78 453.75 500.75 C 459.84 493.73 466.07 486.95 470.77 478.77 C 475.47 470.59 480.60 463.14 483.78 453.78 C 486.96 444.41 490.61 432.32 491.00 422.00
C 491.18 417.35 491.00 412.66 491.00 408.00
C 491.00 398.96 488.44 389.06 484.69 381.31 C 480.95 373.55 475.84 369.26 469.75 363.25 C 463.67 357.24 457.83 353.57 450.31 349.70 C 442.78 345.82 436.11 342.35 427.92 339.08 C 419.74 335.80 412.10 333.38 402.98 331.02 C 393.85 328.67 386.44 326.10 376.00 325.00 C 365.56 323.90 359.83 321.45 347.78 320.22 C 335.73 319.00 339.43 312.53 349.08 308.08 C 358.72 303.62 362.37 300.59 372.02 298.02 C 381.68 295.46 389.77 292.98 400.00 293.00 C 410.23 293.02 421.61 293.11 431.01 294.99 C 440.40 296.87 449.44 298.03 458.07 300.93 C 466.71 303.83 477.63 307.64 464.32 312.32 C 451.01 317.00 465.17 322.97 472.68 324.32 C 480.18 325.67 488.49 331.42 495.70 334.30 C 502.90 337.18 509.03 342.90 515.00 348.00
M 816.00 341.00 
C 838.58 377.48 855.00 422.37 855.00 466.00
C 856.57 482.25 855.54 499.36 853.00 515.00
C 851.62 540.52 841.72 569.79 831.22 592.22 C 820.72 614.66 809.11 635.15 793.00 654.00
C 789.61 657.96 786.38 662.04 783.00 666.00
C 780.68 668.72 775.62 675.05 772.75 676.75 C 769.88 678.45 764.86 687.66 762.00 687.00
C 758.89 686.29 758.67 677.25 758.07 673.93 C 757.47 670.60 756.11 663.60 755.00 660.00
C 754.59 658.68 754.34 657.39 754.00 656.00
C 750.30 645.92 751.04 645.78 757.00 637.00
C 759.48 632.40 763.23 628.29 766.00 624.00
C 784.62 587.56 800.51 553.83 803.78 511.78 C 807.05 469.73 801.51 421.86 784.00 384.00
C 781.69 379.01 774.99 372.10 778.76 366.75 C 782.52 361.41 786.72 357.24 790.00 352.00
C 795.04 343.95 800.88 335.60 805.00 327.00
C 810.54 329.20 812.60 336.35 816.00 341.00
M 283.00 462.00 
C 264.90 444.57 262.40 415.12 270.32 392.32 C 278.24 369.52 293.84 358.92 311.25 342.25 C 328.65 325.57 362.62 329.90 363.00 359.00 C 363.38 388.10 340.62 396.87 316.98 403.98 C 293.33 411.08 281.42 438.95 283.00 462.00
M 396.00 338.00 
C 409.63 342.14 400.09 366.56 385.93 360.07 C 371.77 353.59 379.48 332.99 396.00 338.00
M 306.00 424.00 
C 321.09 411.93 336.55 412.46 355.07 408.07 C 373.60 403.68 391.87 422.06 384.22 440.22 C 376.58 458.38 355.86 460.58 339.98 455.02 C 324.09 449.47 313.04 438.90 306.00 424.00
M 684.00 710.00 
C 688.65 717.20 692.07 725.07 695.00 733.00
C 634.64 765.45 567.61 788.18 497.00 783.00
C 564.94 777.21 630.75 753.46 684.00 710.00 Z"/>
</g>
<g fill="#56070C" fill-opacity="1.00" stroke="None">
<path d="
M 835.00 182.00 
C 836.41 179.72 838.74 177.56 840.00 175.00
C 843.29 176.21 841.56 180.37 842.00 183.00
C 842.09 187.32 842.09 191.68 842.00 196.00
C 843.85 189.36 843.41 180.06 842.00 173.00
C 837.85 173.60 836.56 178.89 835.00 182.00 Z"/>
</g>
<g fill="#FAF9FA" fill-opacity="1.00" stroke="None">
<path d="
M 294.00 254.00 
C 288.41 259.59 282.54 265.46 277.00 271.00
C 249.39 303.31 232.55 328.75 216.98 368.98 C 201.40 409.20 202.66 462.61 213.00 505.00
C 214.92 507.68 215.18 504.58 218.00 507.00
C 215.29 470.63 210.96 431.51 223.00 397.00
C 222.85 411.64 215.93 429.61 219.00 445.00
C 220.79 431.81 225.09 416.88 229.98 404.98 C 234.86 393.07 236.95 378.52 243.92 367.92 C 250.90 357.33 255.03 344.89 261.92 334.92 C 268.82 324.96 276.18 312.63 287.00 310.00
C 315.99 272.91 348.79 246.60 389.92 223.92 C 431.04 201.24 488.07 182.00 537.00 182.00
C 545.49 181.18 555.58 181.18 564.00 182.00
C 570.74 180.81 578.24 183.96 584.00 182.00
C 481.09 158.20 372.99 186.50 294.00 254.00 Z"/>
</g>
<g fill="#CF161E" fill-opacity="1.00" stroke="None">
<path d="
M 835.00 182.00 
C 813.82 224.36 783.86 258.55 751.25 294.25 C 718.64 329.94 676.18 351.72 635.00 373.00
C 630.19 375.48 624.51 377.74 619.00 379.00
C 599.94 383.28 578.71 386.72 559.00 382.00
C 571.53 419.47 560.58 464.60 545.92 497.92 C 531.27 531.25 507.10 547.89 482.00 573.00
C 475.34 579.66 470.86 587.62 462.75 592.75 C 454.64 597.88 451.21 606.37 443.25 612.25 C 435.28 618.13 430.60 628.17 426.00 635.00
C 467.40 609.23 512.62 586.96 554.00 559.00
C 546.03 554.85 555.68 552.22 558.00 549.00
C 560.37 548.45 563.14 550.53 563.00 553.00
C 607.09 532.72 636.57 490.79 657.00 449.00
C 648.10 452.14 641.05 459.14 633.00 464.00
C 644.53 449.47 662.80 441.97 675.25 427.25 C 687.70 412.53 703.62 401.63 714.00 386.00
C 698.37 396.24 684.05 410.45 667.00 418.00
C 686.06 402.76 704.88 388.94 722.75 371.75 C 740.63 354.56 755.74 336.43 771.25 317.25 C 786.77 298.07 799.00 277.24 811.31 255.31 C 823.61 233.37 833.25 205.96 842.00 183.00
C 841.56 180.37 843.29 176.21 840.00 175.00
C 838.74 177.56 836.41 179.72 835.00 182.00 Z"/>
</g>
<g fill="#686663" fill-opacity="1.00" stroke="None">
<path d="
M 537.00 182.00 
C 546.00 182.00 555.00 182.00 564.00 182.00
C 555.58 181.18 545.49 181.18 537.00 182.00 Z"/>
</g>
<g fill="#9C0C13" fill-opacity="1.00" stroke="None">
<path d="
M 482.00 573.00 
C 439.26 605.40 391.37 634.63 357.00 678.00
C 367.69 680.19 380.88 694.61 391.78 694.22 C 402.67 693.82 410.75 680.02 421.25 675.25 C 431.76 670.49 440.67 660.42 451.77 655.77 C 462.87 651.12 472.82 643.01 483.92 637.92 C 495.03 632.84 506.15 625.78 517.32 620.32 C 528.49 614.86 540.27 610.13 551.26 604.26 C 562.24 598.38 574.18 594.17 585.31 588.31 C 596.43 582.44 608.86 578.51 620.00 573.00
C 623.42 571.31 626.91 568.62 631.00 568.00
C 628.06 571.94 622.75 572.95 619.00 576.00
C 608.99 583.46 597.51 589.21 588.00 597.00
C 608.65 600.05 625.16 613.46 641.00 627.00
C 638.11 624.11 634.50 620.57 633.00 617.00
C 642.88 615.23 635.13 601.07 627.00 605.00
C 632.84 596.35 642.29 604.67 649.00 607.00
C 642.95 597.97 632.37 595.40 624.00 590.00
C 626.33 584.50 628.44 581.36 632.30 576.30 C 636.17 571.25 635.78 567.05 635.33 561.33 C 634.89 555.60 650.17 558.29 646.67 551.33 C 643.17 544.37 641.23 544.72 637.00 539.00
C 652.15 540.04 661.64 548.84 669.25 561.75 C 676.87 574.65 684.68 584.28 691.25 597.75 C 697.83 611.22 704.81 623.38 708.98 638.02 C 713.14 652.66 720.83 666.06 723.33 681.67 C 725.83 697.29 732.46 711.99 734.93 728.07 C 737.39 744.16 739.35 762.74 742.00 779.00
C 742.25 752.99 741.21 720.69 747.00 697.00
C 741.80 670.06 734.98 645.44 725.00 620.00
C 721.82 614.04 718.42 607.55 716.00 601.00
C 708.67 581.13 696.40 565.87 685.25 547.75 C 674.10 529.62 660.55 519.02 651.32 498.68 C 642.09 478.34 663.82 460.21 678.77 447.77 C 693.72 435.33 708.02 422.09 721.75 407.75 C 735.48 393.41 749.03 380.18 761.70 364.70 C 774.36 349.21 784.74 332.99 796.08 316.08 C 807.43 299.17 816.86 281.42 825.03 262.03 C 833.19 242.63 841.56 217.98 842.00 196.00
C 842.09 191.68 842.09 187.32 842.00 183.00
C 833.25 205.96 823.61 233.37 811.31 255.31 C 799.00 277.24 786.77 298.07 771.25 317.25 C 755.74 336.43 740.63 354.56 722.75 371.75 C 704.88 388.94 686.06 402.76 667.00 418.00
C 684.05 410.45 698.37 396.24 714.00 386.00
C 703.62 401.63 687.70 412.53 675.25 427.25 C 662.80 441.97 644.53 449.47 633.00 464.00
C 641.05 459.14 648.10 452.14 657.00 449.00
C 636.57 490.79 607.09 532.72 563.00 553.00
C 563.14 550.53 560.37 548.45 558.00 549.00
C 555.68 552.22 546.03 554.85 554.00 559.00
C 512.62 586.96 467.40 609.23 426.00 635.00
C 430.60 628.17 435.28 618.13 443.25 612.25 C 451.21 606.37 454.64 597.88 462.75 592.75 C 470.86 587.62 475.34 579.66 482.00 573.00 Z"/>
</g>
<g fill="#CF1820" fill-opacity="1.00" stroke="None">
<path d="
M 432.00 219.00 
C 431.04 219.89 431.92 221.14 432.00 221.00
C 441.06 218.51 449.94 216.67 459.33 215.33 C 468.72 213.99 478.33 212.43 488.00 212.00 C 497.67 211.57 510.16 211.64 519.78 212.22 C 529.40 212.81 539.69 213.45 548.93 215.07 C 558.16 216.70 567.99 218.40 576.93 220.07 C 585.86 221.74 594.00 224.33 602.32 226.68 C 610.64 229.02 618.09 232.11 625.78 235.22 C 633.46 238.34 640.45 241.76 647.77 245.23 C 655.09 248.70 662.25 253.20 668.92 257.08 C 675.59 260.96 681.65 266.62 688.25 269.75 C 694.86 272.87 700.74 280.57 706.75 283.25 C 712.77 285.93 717.80 298.52 724.00 298.00
C 722.39 290.97 720.96 279.07 713.00 275.00
C 714.02 272.86 716.72 269.91 719.00 269.00
C 715.86 264.67 710.70 260.96 707.00 257.00
C 719.19 262.37 730.40 271.83 741.00 280.00
C 745.81 276.64 749.23 271.31 754.00 268.00
C 754.13 266.45 752.07 263.97 751.00 263.00
C 721.46 241.90 698.30 225.93 663.23 213.77 C 628.16 201.62 584.56 194.54 545.00 196.00 C 505.44 197.47 468.43 206.54 432.00 219.00 Z"/>
</g>
<g fill="#5B0A12" fill-opacity="1.00" stroke="None">
<path d="
M 432.00 221.00 
C 431.92 221.14 431.04 219.89 432.00 219.00
C 429.28 221.02 423.64 220.14 423.00 224.00
C 426.23 223.95 429.33 221.73 432.00 221.00 Z"/>
</g>
<g fill="#D01A23" fill-opacity="1.00" stroke="None">
<path d="
M 400.00 242.00 
C 399.52 247.23 400.00 252.74 400.00 258.00
C 400.00 259.00 399.97 260.00 400.00 261.00
C 401.36 264.96 406.25 262.03 409.00 265.00
C 404.50 260.52 410.04 255.79 407.00 251.00
C 405.96 245.88 403.66 240.63 402.00 236.00
C 399.69 237.07 400.42 239.98 400.00 242.00 Z"/>
</g>
<g fill="#620D12" fill-opacity="1.00" stroke="None">
<path d="
M 400.00 258.00 
C 400.00 252.74 399.52 247.23 400.00 242.00
C 398.96 247.03 398.88 252.90 400.00 258.00 Z"/>
</g>
<g fill="#A00D15" fill-opacity="1.00" stroke="None">
<path d="
M 400.00 261.00 
C 400.53 266.89 402.30 272.44 404.00 278.00
C 410.50 277.63 416.78 278.30 423.00 279.00
C 418.40 269.57 411.55 260.19 407.00 251.00
C 410.04 255.79 404.50 260.52 409.00 265.00
C 406.25 262.03 401.36 264.96 400.00 261.00 Z"/>
</g>
<g fill="#CF091F" fill-opacity="1.00" stroke="None">
<path d="
M 530.00 300.00 
C 529.77 305.93 528.08 315.20 536.00 316.00
C 536.40 325.34 541.72 329.12 549.68 333.32 C 557.64 337.52 567.94 332.10 575.74 333.60 C 583.55 335.10 588.61 334.47 595.23 333.79 C 601.85 333.11 608.91 337.00 614.30 330.30 C 619.68 323.59 626.00 322.14 628.31 313.31 C 630.61 304.47 630.58 294.72 627.67 286.33 C 624.77 277.93 624.01 270.53 619.00 263.00
C 588.25 241.91 531.62 257.45 530.00 300.00 Z"/>
</g>
<g fill="#716E72" fill-opacity="1.00" stroke="None">
<path d="
M 277.00 271.00 
C 282.54 265.46 288.41 259.59 294.00 254.00
C 288.04 259.09 282.14 264.99 277.00 271.00 Z"/>
</g>
<g fill="#AA0D15" fill-opacity="1.00" stroke="None">
<path d="
M 724.00 298.00 
C 726.11 297.82 730.32 292.44 732.00 291.00
C 735.07 287.93 740.28 283.16 742.75 279.75 C 745.22 276.35 753.67 272.02 754.00 268.00
C 749.23 271.31 745.81 276.64 741.00 280.00
C 730.40 271.83 719.19 262.37 707.00 257.00
C 710.70 260.96 715.86 264.67 719.00 269.00
C 716.72 269.91 714.02 272.86 713.00 275.00
C 720.96 279.07 722.39 290.97 724.00 298.00 Z"/>
</g>
<g fill="#A50B16" fill-opacity="1.00" stroke="None">
<path d="
M 530.00 300.00 
C 526.12 327.18 540.64 355.66 568.32 363.68 C 596.00 371.69 624.59 360.47 637.70 334.70 C 650.80 308.92 642.58 279.17 619.00 263.00
C 624.01 270.53 624.77 277.93 627.67 286.33 C 630.58 294.72 630.61 304.47 628.31 313.31 C 626.00 322.14 619.68 323.59 614.30 330.30 C 608.91 337.00 601.85 333.11 595.23 333.79 C 588.61 334.47 583.55 335.10 575.74 333.60 C 567.94 332.10 557.64 337.52 549.68 333.32 C 541.72 329.12 536.40 325.34 536.00 316.00
C 528.08 315.20 529.77 305.93 530.00 300.00 Z"/>
</g>
<g fill="#3F0608" fill-opacity="1.00" stroke="None">
<path d="
M 754.00 268.00 
C 753.67 272.02 745.22 276.35 742.75 279.75 C 740.28 283.16 735.07 287.93 732.00 291.00
C 736.94 286.78 741.66 282.04 746.25 277.25 C 750.83 272.46 758.53 268.38 751.00 263.00
C 752.07 263.97 754.13 266.45 754.00 268.00 Z"/>
</g>
<g fill="#515253" fill-opacity="1.00" stroke="None">
<path d="
M 247.00 284.00 
C 247.16 283.77 248.00 284.00 248.00 284.00
C 253.11 279.15 259.83 274.20 263.00 268.00
C 257.38 272.79 251.84 278.34 247.00 284.00 Z"/>
</g>
<g fill="#F6F6F7" fill-opacity="1.00" stroke="None">
<path d="
M 462.00 777.00 
C 469.67 777.00 477.33 777.00 485.00 777.00
C 544.59 774.32 602.46 756.92 651.00 723.00
C 606.16 741.15 558.90 755.00 509.00 755.00
C 502.08 755.67 493.85 755.66 487.00 755.00
C 394.39 751.66 303.44 713.77 243.00 641.00
C 255.09 652.00 265.83 663.60 279.25 673.75 C 292.68 683.89 305.65 691.95 320.77 700.23 C 335.89 708.51 350.35 715.63 367.32 721.68 C 384.29 727.72 403.11 733.02 421.78 736.22 C 440.45 739.42 463.73 743.72 484.00 742.00 C 504.27 740.28 529.02 744.87 548.00 738.00
C 540.63 738.75 528.38 736.71 521.00 736.00
C 441.07 736.00 356.89 703.80 295.75 654.25 C 234.62 604.70 190.00 532.23 190.00 454.00
C 189.33 447.08 189.34 438.85 190.00 432.00
C 190.00 421.64 191.68 409.76 193.02 400.02 C 194.36 390.29 197.55 381.92 200.02 373.02 C 202.50 364.13 206.13 356.38 209.08 348.08 C 212.02 339.77 217.57 332.48 220.70 324.70 C 223.82 316.91 230.90 310.96 233.70 303.70 C 236.50 296.44 247.23 291.20 248.00 284.00
C 248.00 284.00 247.16 283.77 247.00 284.00
C 197.42 342.02 161.48 415.52 165.00 493.00 C 168.52 570.48 199.98 639.99 257.25 691.75 C 314.52 743.52 384.84 777.00 462.00 777.00 Z"/>
</g>
<g fill="#FBFBFB" fill-opacity="1.00" stroke="None">
<path d="
M 491.00 408.00 
C 491.43 412.48 491.64 417.54 491.00 422.00
C 490.61 432.32 486.96 444.41 483.78 453.78 C 480.60 463.14 475.47 470.59 470.77 478.77 C 466.07 486.95 459.84 493.73 453.75 500.75 C 447.67 507.78 442.06 513.85 435.25 520.25 C 428.43 526.64 420.82 531.85 413.75 537.75 C 406.68 543.66 399.77 548.78 392.75 554.75 C 385.72 560.72 378.16 566.00 371.25 572.25 C 364.34 578.50 358.92 584.21 352.25 591.25 C 345.59 598.30 341.71 605.11 335.30 613.30 C 328.89 621.50 328.45 627.89 321.77 637.77 C 315.09 647.65 319.29 652.67 329.00 659.00
C 334.05 658.46 336.59 644.84 340.97 640.97 C 345.36 637.11 349.41 628.96 354.75 624.75 C 360.09 620.55 364.45 614.13 370.23 610.23 C 376.01 606.33 381.91 600.78 387.75 596.75 C 393.58 592.71 398.86 587.77 404.75 583.75 C 410.64 579.73 417.44 576.66 423.08 572.08 C 428.72 567.50 434.84 563.83 440.75 559.75 C 446.65 555.66 454.33 552.70 459.75 547.75 C 465.16 542.79 471.09 539.29 476.25 534.25 C 481.41 529.20 486.51 524.71 491.25 519.25 C 495.98 513.79 501.37 508.64 505.75 502.75 C 510.13 496.86 513.33 490.98 517.92 484.92 C 522.50 478.85 524.44 471.99 527.98 464.98 C 531.51 457.96 533.83 451.12 535.98 442.98 C 538.13 434.83 539.10 424.00 539.00 415.00 C 538.90 406.00 538.05 396.02 536.02 387.98 C 534.00 379.93 531.21 373.53 527.22 366.78 C 523.24 360.02 520.54 353.54 515.00 348.00
C 509.03 342.90 502.90 337.18 495.70 334.30 C 488.49 331.42 480.18 325.67 472.68 324.32 C 465.17 322.97 451.01 317.00 464.32 312.32 C 477.63 307.64 466.71 303.83 458.07 300.93 C 449.44 298.03 440.40 296.87 431.01 294.99 C 421.61 293.11 410.23 293.02 400.00 293.00 C 389.77 292.98 381.68 295.46 372.02 298.02 C 362.37 300.59 358.72 303.62 349.08 308.08 C 339.43 312.53 335.73 319.00 347.78 320.22 C 359.83 321.45 365.56 323.90 376.00 325.00 C 386.44 326.10 393.85 328.67 402.98 331.02 C 412.10 333.38 419.74 335.80 427.92 339.08 C 436.11 342.35 442.78 345.82 450.31 349.70 C 457.83 353.57 463.67 357.24 469.75 363.25 C 475.84 369.26 480.95 373.55 484.69 381.31 C 488.44 389.06 491.00 398.96 491.00 408.00 Z"/>
</g>
<g fill="#D0D0D0" fill-opacity="1.00" stroke="None">
<path d="
M 213.00 505.00 
C 218.91 528.18 228.80 550.96 242.00 571.00
C 206.22 483.86 230.63 382.11 287.00 310.00
C 276.18 312.63 268.82 324.96 261.92 334.92 C 255.03 344.89 250.90 357.33 243.92 367.92 C 236.95 378.52 234.86 393.07 229.98 404.98 C 225.09 416.88 220.79 431.81 219.00 445.00
C 215.93 429.61 222.85 411.64 223.00 397.00
C 210.96 431.51 215.29 470.63 218.00 507.00
C 215.18 504.58 214.92 507.68 213.00 505.00 Z"/>
</g>
<g fill="#720509" fill-opacity="1.00" stroke="None">
<path d="
M 790.00 352.00 
C 791.33 350.72 793.14 349.10 795.00 349.00
C 796.99 352.06 800.39 354.33 801.00 358.00
C 806.90 354.36 809.77 345.66 812.00 339.00
C 813.82 338.45 814.47 340.75 816.00 341.00
C 812.60 336.35 810.54 329.20 805.00 327.00
C 800.88 335.60 795.04 343.95 790.00 352.00 Z"/>
</g>
<g fill="#FAFAFB" fill-opacity="1.00" stroke="None">
<path d="
M 283.00 462.00 
C 281.42 438.95 293.33 411.08 316.98 403.98 C 340.62 396.87 363.38 388.10 363.00 359.00 C 362.62 329.90 328.65 325.57 311.25 342.25 C 293.84 358.92 278.24 369.52 270.32 392.32 C 262.40 415.12 264.90 444.57 283.00 462.00 Z"/>
</g>
<g fill="#F5F5F5" fill-opacity="1.00" stroke="None">
<path d="
M 396.00 338.00 
C 379.48 332.99 371.77 353.59 385.93 360.07 C 400.09 366.56 409.63 342.14 396.00 338.00 Z"/>
</g>
<g fill="#970C11" fill-opacity="1.00" stroke="None">
<path d="
M 790.00 352.00 
C 786.72 357.24 782.52 361.41 778.76 366.75 C 774.99 372.10 781.69 379.01 784.00 384.00
C 784.82 374.95 793.00 373.80 796.92 364.92 C 800.84 356.04 807.11 368.47 808.93 376.07 C 810.74 383.68 816.12 390.77 817.78 399.22 C 819.43 407.67 822.28 417.01 823.98 426.02 C 825.67 435.04 826.59 446.37 827.00 456.00 C 827.41 465.63 828.83 477.15 828.00 487.00 C 827.17 496.85 826.59 507.69 825.02 517.02 C 823.45 526.36 822.03 534.96 819.68 543.68 C 817.33 552.40 815.10 560.56 811.69 568.69 C 808.29 576.83 805.49 583.91 802.00 592.00
C 804.22 588.49 805.50 588.70 809.00 587.00
C 806.65 595.78 801.97 603.61 797.70 611.70 C 793.42 619.78 789.30 627.47 784.08 635.08 C 778.86 642.70 776.76 650.33 771.08 658.08 C 765.39 665.82 765.22 681.40 774.75 672.75 C 784.28 664.11 784.02 661.52 793.00 654.00
C 809.11 635.15 820.72 614.66 831.22 592.22 C 841.72 569.79 851.62 540.52 853.00 515.00
C 853.88 498.83 855.00 482.73 855.00 466.00
C 855.00 422.37 838.58 377.48 816.00 341.00
C 814.47 340.75 813.82 338.45 812.00 339.00
C 809.77 345.66 806.90 354.36 801.00 358.00
C 800.39 354.33 796.99 352.06 795.00 349.00
C 793.14 349.10 791.33 350.72 790.00 352.00 Z"/>
</g>
<g fill="#B6B5B6" fill-opacity="1.00" stroke="None">
<path d="
M 329.00 659.00 
C 332.58 661.47 336.38 665.52 341.00 666.00
C 381.97 609.94 444.34 586.41 493.75 539.75 C 543.17 493.09 575.53 399.72 515.00 348.00
C 520.54 353.54 523.24 360.02 527.22 366.78 C 531.21 373.53 534.00 379.93 536.02 387.98 C 538.05 396.02 538.90 406.00 539.00 415.00 C 539.10 424.00 538.13 434.83 535.98 442.98 C 533.83 451.12 531.51 457.96 527.98 464.98 C 524.44 471.99 522.50 478.85 517.92 484.92 C 513.33 490.98 510.13 496.86 505.75 502.75 C 501.37 508.64 495.98 513.79 491.25 519.25 C 486.51 524.71 481.41 529.20 476.25 534.25 C 471.09 539.29 465.16 542.79 459.75 547.75 C 454.33 552.70 446.65 555.66 440.75 559.75 C 434.84 563.83 428.72 567.50 423.08 572.08 C 417.44 576.66 410.64 579.73 404.75 583.75 C 398.86 587.77 393.58 592.71 387.75 596.75 C 381.91 600.78 376.01 606.33 370.23 610.23 C 364.45 614.13 360.09 620.55 354.75 624.75 C 349.41 628.96 345.36 637.11 340.97 640.97 C 336.59 644.84 334.05 658.46 329.00 659.00 Z"/>
</g>
<g fill="#D21A20" fill-opacity="1.00" stroke="None">
<path d="
M 784.00 384.00 
C 801.51 421.86 807.05 469.73 803.78 511.78 C 800.51 553.83 784.62 587.56 766.00 624.00
C 763.48 628.92 760.35 633.83 757.00 638.00
C 761.07 642.80 758.86 650.02 761.00 655.00
C 767.36 647.00 773.46 638.53 780.00 631.00
C 787.65 618.11 796.03 605.84 802.00 592.00
C 805.49 583.91 808.29 576.83 811.69 568.69 C 815.10 560.56 817.33 552.40 819.68 543.68 C 822.03 534.96 823.45 526.36 825.02 517.02 C 826.59 507.69 827.17 496.85 828.00 487.00 C 828.83 477.15 827.41 465.63 827.00 456.00 C 826.59 446.37 825.67 435.04 823.98 426.02 C 822.28 417.01 819.43 407.67 817.78 399.22 C 816.12 390.77 810.74 383.68 808.93 376.07 C 807.11 368.47 800.84 356.04 796.92 364.92 C 793.00 373.80 784.82 374.95 784.00 384.00 Z"/>
</g>
<g fill="#660E11" fill-opacity="1.00" stroke="None">
<path d="
M 619.00 379.00 
C 624.51 377.74 630.19 375.48 635.00 373.00
C 629.81 374.85 623.74 377.40 619.00 379.00 Z"/>
</g>
<g fill="#FAFAFA" fill-opacity="1.00" stroke="None">
<path d="
M 306.00 424.00 
C 313.04 438.90 324.09 449.47 339.98 455.02 C 355.86 460.58 376.58 458.38 384.22 440.22 C 391.87 422.06 373.60 403.68 355.07 408.07 C 336.55 412.46 321.09 411.93 306.00 424.00 Z"/>
</g>
<g fill="#726F73" fill-opacity="1.00" stroke="None">
<path d="
M 491.00 422.00 
C 491.64 417.54 491.43 412.48 491.00 408.00
C 491.00 412.66 491.18 417.35 491.00 422.00 Z"/>
</g>
<g fill="#636463" fill-opacity="1.00" stroke="None">
<path d="
M 190.00 454.00 
C 190.00 446.67 190.00 439.33 190.00 432.00
C 189.34 438.85 189.33 447.08 190.00 454.00 Z"/>
</g>
<g fill="#410406" fill-opacity="1.00" stroke="None">
<path d="
M 853.00 515.00 
C 855.54 499.36 856.57 482.25 855.00 466.00
C 855.00 482.73 853.88 498.83 853.00 515.00 Z"/>
</g>
<g fill="#C8131E" fill-opacity="1.00" stroke="None">
<path d="
M 641.00 627.00 
C 693.29 676.65 719.74 743.68 742.00 809.00
C 748.97 800.24 749.19 787.28 751.00 775.00 C 752.81 762.72 751.58 747.60 751.00 735.00 C 750.42 722.40 749.29 708.88 747.00 697.00
C 741.21 720.69 742.25 752.99 742.00 779.00
C 739.35 762.74 737.39 744.16 734.93 728.07 C 732.46 711.99 725.83 697.29 723.33 681.67 C 720.83 666.06 713.14 652.66 708.98 638.02 C 704.81 623.38 697.83 611.22 691.25 597.75 C 684.68 584.28 676.87 574.65 669.25 561.75 C 661.64 548.84 652.15 540.04 637.00 539.00
C 641.23 544.72 643.17 544.37 646.67 551.33 C 650.17 558.29 634.89 555.60 635.33 561.33 C 635.78 567.05 636.17 571.25 632.30 576.30 C 628.44 581.36 626.33 584.50 624.00 590.00
C 632.37 595.40 642.95 597.97 649.00 607.00
C 642.29 604.67 632.84 596.35 627.00 605.00
C 635.13 601.07 642.88 615.23 633.00 617.00
C 634.50 620.57 638.11 624.11 641.00 627.00 Z"/>
</g>
<g fill="#5F0606" fill-opacity="1.00" stroke="None">
<path d="
M 620.00 573.00 
C 620.34 572.55 619.69 575.21 619.00 576.00
C 622.75 572.95 628.06 571.94 631.00 568.00
C 626.91 568.62 623.42 571.31 620.00 573.00 Z"/>
</g>
<g fill="#6F0609" fill-opacity="1.00" stroke="None">
<path d="
M 802.00 592.00 
C 796.03 605.84 787.65 618.11 780.00 631.00
C 773.44 642.06 763.71 651.08 757.00 662.00
C 755.74 661.92 756.44 659.94 755.00 660.00
C 756.11 663.60 757.47 670.60 758.07 673.93 C 758.67 677.25 758.89 686.29 762.00 687.00
C 768.19 679.36 776.13 672.87 783.00 666.00
C 786.38 662.04 789.61 657.96 793.00 654.00
C 784.02 661.52 784.28 664.11 774.75 672.75 C 765.22 681.40 765.39 665.82 771.08 658.08 C 776.76 650.33 778.86 642.70 784.08 635.08 C 789.30 627.47 793.42 619.78 797.70 611.70 C 801.97 603.61 806.65 595.78 809.00 587.00
C 805.50 588.70 804.22 588.49 802.00 592.00 Z"/>
</g>
<g fill="#4C050A" fill-opacity="1.00" stroke="None">
<path d="
M 725.00 620.00 
C 722.36 613.27 719.32 607.09 716.00 601.00
C 718.42 607.55 721.82 614.04 725.00 620.00 Z"/>
</g>
<g fill="#9B0E14" fill-opacity="1.00" stroke="None">
<path d="
M 757.00 637.00 
C 752.30 645.71 751.64 646.26 754.00 656.00
C 754.34 657.39 754.59 658.68 755.00 660.00
C 756.44 659.94 755.74 661.92 757.00 662.00
C 763.71 651.08 773.44 642.06 780.00 631.00
C 773.46 638.53 767.36 647.00 761.00 655.00
C 758.86 650.02 761.07 642.80 757.00 638.00
C 760.35 633.83 763.48 628.92 766.00 624.00
C 763.23 628.29 759.48 632.40 757.00 637.00 Z"/>
</g>
<g fill="#4B0508" fill-opacity="1.00" stroke="None">
<path d="
M 754.00 656.00 
C 751.64 646.26 752.30 645.71 757.00 637.00
C 751.04 645.78 750.30 645.92 754.00 656.00 Z"/>
</g>
<g fill="#300204" fill-opacity="1.00" stroke="None">
<path d="
M 762.00 687.00 
C 764.86 687.66 769.88 678.45 772.75 676.75 C 775.62 675.05 780.68 668.72 783.00 666.00
C 776.13 672.87 768.19 679.36 762.00 687.00 Z"/>
</g>
<g fill="#81090D" fill-opacity="1.00" stroke="None">
<path d="
M 684.00 710.00 
C 630.75 753.46 564.94 777.21 497.00 783.00
C 567.61 788.18 634.64 765.45 695.00 733.00
C 692.07 725.07 688.65 717.20 684.00 710.00 Z"/>
</g>
<g fill="#757677" fill-opacity="1.00" stroke="None">
<path d="
M 548.00 738.00 
C 549.41 738.21 550.56 737.29 551.00 736.00
C 541.00 736.00 531.00 736.00 521.00 736.00
C 528.38 736.71 540.63 738.75 548.00 738.00 Z"/>
</g>
<g fill="#888A89" fill-opacity="1.00" stroke="None">
<path d="
M 509.00 755.00 
C 501.67 755.00 494.33 755.00 487.00 755.00
C 493.85 755.66 502.08 755.67 509.00 755.00 Z"/>
</g>
<g fill="#646566" fill-opacity="1.00" stroke="None">
<path d="
M 485.00 777.00 
C 477.33 777.00 469.67 777.00 462.00 777.00
C 469.17 777.69 477.76 777.70 485.00 777.00 Z"/>
</g>
</svg>