<?xml version="1.0" standalone="no"?>
<!DOCTYPE svg PUBLIC "-//W3C//DTD SVG 20010904//EN"
 "http://www.w3.org/TR/2001/REC-SVG-20010904/DTD/svg10.dtd">
<svg version="1.0" xmlns="http://www.w3.org/2000/svg"
 width="600.000000pt" height="600.000000pt" viewBox="0 0 600.000000 600.000000"
 preserveAspectRatio="xMidYMid meet">
<g transform="translate(0.000000,600.000000) scale(0.100000,-0.100000)"
fill="#000000" stroke="none">
<path d="M2760 5380 c-25 -4 -76 -13 -115 -20 -38 -7 -76 -13 -82 -13 -7 0
-13 -3 -13 -7 0 -4 -10 -6 -22 -6 -13 1 -27 -1 -33 -5 -9 -6 -58 -20 -80 -24
-5 0 -23 -7 -40 -14 -16 -7 -34 -14 -40 -15 -5 -1 -25 -10 -43 -19 -18 -10
-38 -15 -44 -11 -7 4 -8 3 -4 -4 4 -7 1 -12 -6 -12 -20 0 -68 -24 -68 -33 0
-5 -4 -5 -10 -2 -5 3 -10 1 -10 -5 0 -6 -4 -8 -10 -5 -5 3 -10 2 -10 -3 0 -5
-7 -9 -15 -10 -8 -1 -22 -3 -30 -4 -8 -1 -12 -5 -10 -9 4 -6 -14 -18 -35 -24
-3 0 -20 -11 -39 -22 -19 -12 -39 -19 -44 -16 -6 3 -7 2 -4 -4 3 -5 -12 -20
-35 -34 -22 -13 -60 -43 -84 -66 -24 -23 -44 -40 -44 -37 0 3 -10 -4 -22 -16
-12 -11 -26 -20 -30 -20 -5 0 -7 -4 -4 -9 3 -5 -2 -15 -11 -22 -14 -12 -16
-12 -9 1 4 8 -4 2 -18 -15 -14 -16 -31 -37 -38 -45 -7 -8 -31 -30 -53 -49 -22
-18 -33 -30 -25 -26 8 3 -1 -8 -20 -25 -19 -17 -28 -28 -20 -24 8 4 -3 -13
-25 -38 -68 -78 -85 -99 -85 -109 0 -6 -5 -7 -12 -3 -6 4 -8 3 -5 -3 4 -6 -6
-30 -21 -54 -15 -24 -36 -60 -45 -79 -10 -19 -21 -42 -26 -50 -24 -42 -102
-220 -96 -220 2 0 -7 -30 -21 -67 -14 -37 -27 -83 -30 -103 -2 -19 -9 -49 -14
-66 -11 -32 -16 -62 -28 -149 -8 -61 -7 -463 1 -525 4 -25 10 -61 13 -80 4
-19 6 -41 5 -47 -1 -7 2 -13 7 -13 5 0 9 -6 10 -12 0 -7 3 -22 6 -33 7 -25 26
-95 31 -115 2 -8 4 -17 5 -20 1 -3 2 -8 1 -12 0 -5 3 -8 9 -8 6 0 9 -3 8 -7
-1 -5 3 -18 10 -30 7 -12 11 -26 10 -30 -1 -7 20 -58 58 -138 8 -16 26 -50 42
-75 15 -26 28 -52 30 -60 2 -8 9 -18 15 -22 7 -4 8 -8 4 -8 -4 0 1 -10 13 -23
42 -46 74 -91 60 -83 -8 5 2 -9 23 -31 20 -21 34 -42 31 -46 -4 -4 0 -7 10 -7
9 0 14 -5 11 -10 -3 -6 1 -13 9 -16 9 -3 16 -11 16 -16 0 -12 67 -78 80 -78 6
0 10 -5 10 -11 0 -14 47 -59 61 -59 6 0 7 -4 4 -10 -3 -5 1 -10 10 -10 9 0 13
-4 10 -10 -3 -5 1 -10 9 -10 9 0 16 -4 16 -8 0 -5 20 -23 45 -41 25 -18 60
-46 77 -62 18 -16 56 -41 85 -55 29 -15 50 -31 47 -36 -3 -5 0 -8 7 -7 8 1 25
-3 39 -9 14 -6 21 -11 15 -11 -5 -1 1 -8 13 -17 12 -8 26 -13 31 -10 5 4 11 1
13 -4 2 -6 10 -12 18 -13 8 -2 22 -7 30 -12 16 -10 21 -12 46 -14 8 0 12 -5 9
-11 -4 -6 1 -7 11 -3 13 5 15 3 9 -7 -6 -9 -4 -11 5 -5 7 4 15 2 20 -4 4 -7
17 -13 28 -14 12 -1 22 -5 22 -9 0 -4 10 -8 23 -8 13 0 28 -5 35 -12 7 -7 12
-9 12 -5 0 4 13 1 29 -7 16 -9 31 -12 34 -9 4 3 13 0 21 -6 8 -7 21 -9 27 -5
7 4 9 3 5 -4 -4 -6 1 -11 11 -11 22 1 63 -7 83 -14 23 -9 104 -17 230 -22 63
-3 148 -7 188 -9 39 -2 72 0 72 4 0 5 8 6 18 4 9 -3 59 -1 110 4 118 12 125
19 116 117 -4 39 -7 80 -6 93 1 13 -2 20 -8 17 -5 -3 -7 0 -4 8 3 8 0 18 -5
22 -6 3 -8 11 -5 17 5 7 2 8 -6 3 -10 -6 -12 -4 -7 8 9 23 -24 30 -109 22 -73
-6 -179 -15 -204 -17 -22 -2 -168 11 -220 18 -25 4 -55 7 -67 7 -13 1 -23 5
-23 10 0 5 -6 7 -14 4 -7 -3 -19 0 -26 6 -10 9 -11 9 -5 -3 8 -13 7 -13 -8 -1
-9 7 -17 10 -17 6 0 -4 -6 -3 -12 3 -7 5 -35 13 -61 17 -26 4 -55 14 -62 22
-8 8 -15 12 -15 9 0 -9 -111 34 -185 72 -104 52 -125 64 -125 71 0 4 -19 15
-41 25 -23 10 -50 27 -60 37 -11 11 -47 39 -80 64 -34 25 -58 45 -54 45 4 0
-21 29 -56 63 -35 35 -77 81 -94 101 -16 21 -34 43 -40 49 -29 35 -93 137 -82
131 6 -4 -1 8 -18 26 -16 18 -24 30 -17 26 11 -7 11 -4 0 13 -7 12 -16 21 -20
21 -5 0 -8 5 -8 10 0 6 -12 34 -26 63 -14 28 -27 59 -29 67 -6 26 -38 105 -49
119 -8 11 -8 13 1 8 6 -4 2 16 -9 46 -30 80 -46 207 -52 432 -3 127 23 343 46
371 5 7 8 16 7 20 -3 12 12 66 21 79 4 6 13 31 20 58 7 26 17 47 21 47 5 0 9
9 9 19 0 25 56 142 64 134 5 -6 10 12 7 30 0 4 4 7 10 7 5 0 7 5 4 10 -3 6 -1
10 4 10 6 0 10 4 8 9 -1 5 16 31 38 57 21 26 33 44 25 39 -8 -5 -3 6 9 24 13
18 30 35 37 38 8 3 12 8 10 12 -2 3 51 60 117 126 67 66 117 113 112 105 -5
-8 11 2 36 23 68 58 73 62 81 60 5 -2 8 2 8 7 0 6 6 10 14 10 8 0 16 7 20 15
3 8 12 15 19 15 8 0 27 10 43 22 15 13 24 16 19 9 -4 -8 12 0 36 16 47 32 119
66 119 56 0 -3 9 2 20 12 11 10 23 15 27 12 3 -4 15 1 26 10 15 13 18 14 12 3
-5 -9 1 -7 15 5 13 11 20 14 16 8 -4 -7 -2 -13 4 -13 6 0 13 7 16 15 4 8 10
13 14 10 4 -3 25 1 46 9 22 7 45 11 52 9 6 -3 12 0 12 5 0 6 10 8 22 4 15 -4
19 -2 13 8 -6 9 -4 10 10 3 20 -11 67 -5 59 8 -3 5 7 4 21 -1 15 -6 24 -6 20
-1 -3 6 13 9 37 9 24 -1 86 0 138 1 52 1 131 -1 175 -4 44 -4 92 -7 107 -8 14
-1 24 -5 21 -10 -2 -4 9 -5 26 -2 19 3 31 1 31 -5 0 -6 4 -9 9 -5 5 3 29 -2
53 -11 24 -8 49 -16 56 -16 6 -1 12 -6 12 -11 0 -5 9 -7 20 -4 11 3 18 1 14
-4 -3 -5 4 -9 15 -9 10 0 22 -6 24 -12 4 -10 6 -10 6 -1 1 9 8 8 29 -2 15 -8
48 -24 75 -36 26 -13 47 -26 47 -31 0 -4 5 -8 11 -8 5 0 7 4 4 10 -3 6 1 7 9
4 9 -3 14 -10 11 -14 -3 -4 2 -11 11 -14 10 -4 13 -2 9 7 -4 6 2 2 12 -10 10
-11 33 -24 50 -28 18 -4 36 -12 40 -19 5 -6 28 -27 53 -46 25 -19 48 -39 51
-44 4 -4 12 -5 18 -2 6 4 11 3 11 -1 0 -5 7 -18 16 -29 8 -10 12 -12 8 -4 -4
8 15 -7 42 -34 109 -108 148 -149 138 -143 -6 3 -11 0 -11 -7 0 -8 6 -12 13
-9 8 3 27 -15 45 -41 18 -25 37 -46 42 -46 4 0 6 -4 3 -9 -4 -5 5 -22 18 -38
47 -56 147 -253 176 -348 7 -22 18 -46 24 -54 9 -12 8 -13 -3 -6 -10 5 -12 4
-7 -3 8 -14 17 -47 21 -82 1 -14 8 -38 15 -55 7 -16 15 -52 19 -80 12 -100 5
-520 -9 -520 -1 0 -4 -11 -6 -25 -2 -14 -6 -32 -7 -40 -2 -9 -7 -22 -12 -30
-5 -8 -10 -21 -11 -30 -11 -71 -41 -167 -54 -175 -5 -3 -7 -12 -3 -20 3 -8 0
-15 -6 -15 -6 0 -10 -3 -9 -7 1 -5 -9 -28 -22 -53 -13 -25 -25 -51 -26 -58 -1
-8 -9 -21 -17 -30 -8 -10 -28 -43 -46 -74 -18 -32 -36 -58 -41 -58 -5 0 -12
-10 -16 -22 -3 -13 -15 -35 -26 -50 -11 -16 -16 -28 -12 -28 5 0 3 -5 -3 -11
-8 -8 -5 -18 10 -37 27 -32 57 -62 86 -85 12 -10 19 -23 15 -29 -4 -7 -3 -8 5
-4 6 4 8 13 5 19 -4 7 6 0 22 -14 58 -52 80 -43 148 61 20 30 41 61 46 68 6 6
8 12 5 12 -3 0 2 9 13 20 20 21 109 178 114 200 2 8 9 21 16 29 7 7 11 20 8
27 -3 8 -2 14 2 14 9 0 66 148 78 203 1 4 3 8 4 10 1 1 4 11 5 22 2 11 10 40
17 65 8 25 14 57 14 72 -1 15 1 25 4 23 23 -14 36 441 16 575 -3 19 -6 50 -8
68 -1 17 -5 32 -8 32 -4 0 -7 6 -7 13 -3 36 -16 104 -24 120 -6 9 -7 17 -3 17
3 0 1 7 -6 15 -6 8 -9 19 -6 24 4 5 2 12 -4 16 -5 3 -10 13 -10 22 0 8 -6 29
-14 46 -7 18 -19 51 -26 75 -7 23 -17 42 -22 42 -4 0 -8 8 -8 18 0 9 -9 32
-20 50 -11 18 -20 39 -20 47 0 8 -4 15 -8 15 -5 0 -16 17 -25 38 -9 20 -28 55
-42 77 -14 22 -29 50 -35 62 -5 11 -14 24 -20 28 -6 4 -21 24 -35 44 -13 21
-29 44 -37 52 -8 8 -31 36 -51 63 -21 28 -53 61 -72 75 -19 13 -35 29 -36 35
0 6 -20 27 -45 46 -24 19 -59 49 -77 66 -17 17 -40 34 -49 37 -10 4 -18 11
-18 17 0 5 -6 10 -12 10 -18 0 -69 46 -61 54 4 4 0 4 -9 1 -8 -3 -23 2 -33 12
-10 10 -35 25 -57 35 -21 9 -38 20 -38 23 0 3 6 3 13 -1 6 -4 8 -3 4 1 -4 5
-13 10 -20 11 -7 1 -43 16 -79 33 -37 17 -72 31 -78 31 -6 0 -8 5 -4 12 4 6 3
8 -3 5 -6 -4 -25 0 -42 9 -18 9 -37 17 -44 18 -7 2 -25 9 -42 16 -16 7 -43 14
-59 16 -16 2 -35 9 -42 15 -7 6 -18 8 -24 4 -5 -3 -10 -1 -10 5 0 6 -4 9 -9 6
-5 -3 -28 1 -52 9 -112 37 -505 58 -649 35z m483 -35 c141 -21 184 -31 322
-76 478 -157 865 -497 1085 -954 239 -496 243 -1077 9 -1573 -76 -162 -217
-382 -245 -382 -11 0 -95 60 -156 112 l-28 23 43 69 c23 37 59 96 80 129 89
143 170 355 202 522 33 181 34 453 1 610 -105 501 -413 902 -861 1121 -159 77
-280 117 -433 145 -102 18 -142 20 -317 16 -232 -7 -222 -5 -385 -52 -219 -63
-366 -138 -547 -278 -253 -196 -428 -440 -532 -740 -80 -232 -102 -427 -76
-683 19 -190 29 -235 99 -417 85 -222 251 -463 420 -611 205 -178 461 -309
702 -360 230 -48 349 -54 605 -30 l66 6 16 -83 c24 -119 23 -155 -5 -164 -44
-13 -470 -18 -558 -6 -284 38 -539 136 -794 305 -94 62 -153 112 -262 220
-185 186 -305 359 -399 578 -174 406 -198 840 -69 1267 91 300 253 562 486
786 117 113 132 125 248 203 236 159 540 274 790 299 30 3 57 7 59 9 11 11
343 2 434 -11z"/>
<path d="M3800 4926 c0 -2 7 -6 15 -10 8 -3 15 -1 15 4 0 6 -7 10 -15 10 -8 0
-15 -2 -15 -4z"/>
<path d="M1815 4911 c-3 -5 -2 -12 3 -15 5 -3 9 1 9 9 0 17 -3 19 -12 6z"/>
<path d="M4056 4748 c3 -5 10 -6 15 -3 13 9 11 12 -6 12 -8 0 -12 -4 -9 -9z"/>
<path d="M4486 2551 c-3 -5 2 -15 12 -22 15 -12 16 -12 5 2 -7 9 -10 19 -6 22
3 4 4 7 0 7 -3 0 -8 -4 -11 -9z"/>
<path d="M2006 2192 c-3 -5 1 -9 9 -9 8 0 12 4 9 9 -3 4 -7 8 -9 8 -2 0 -6 -4
-9 -8z"/>
<path d="M2713 4693 c4 -6 0 -14 -9 -17 -10 -4 -13 -2 -8 7 6 9 4 9 -7 2 -8
-6 -27 -12 -44 -14 -16 -1 -34 -7 -39 -12 -6 -5 -17 -9 -26 -9 -8 0 -32 -9
-53 -20 -20 -11 -37 -17 -37 -13 0 3 -10 -3 -23 -15 -13 -12 -27 -19 -32 -15
-4 5 -5 3 -2 -3 4 -7 -10 -16 -33 -24 -36 -12 -74 -40 -55 -40 4 0 -4 -11 -19
-25 -29 -27 -34 -59 -11 -81 8 -9 15 -13 15 -9 0 4 7 -1 16 -10 9 -9 22 -14
30 -11 7 3 14 1 16 -4 2 -5 31 -11 64 -12 35 -2 59 -7 56 -12 -3 -5 2 -6 12
-3 10 4 26 2 36 -3 10 -5 35 -11 54 -12 20 -2 36 -6 36 -10 0 -5 -5 -8 -11 -8
-5 0 -7 -5 -4 -10 4 -6 3 -9 -2 -8 -10 4 -58 -34 -59 -47 -1 -6 -5 -21 -9 -34
-4 -14 -3 -21 3 -18 5 4 8 -4 6 -18 -1 -14 1 -24 4 -22 10 5 42 -30 34 -37 -5
-6 17 -10 45 -9 7 1 10 -3 7 -8 -8 -13 10 -11 24 3 9 9 12 9 12 -1 0 -11 3
-11 17 0 14 12 16 12 9 -1 -4 -9 -1 -8 7 3 8 9 19 17 24 17 20 0 45 40 50 80
5 35 2 45 -23 71 -24 25 -25 29 -9 26 11 -2 28 -7 37 -11 9 -4 22 -5 28 -1 5
3 10 2 10 -2 0 -5 18 -14 40 -19 28 -8 38 -8 33 0 -4 6 4 2 16 -9 13 -11 24
-18 25 -16 2 8 81 -22 99 -37 9 -8 25 -16 35 -17 28 -2 82 -26 82 -37 0 -6 7
-7 16 -4 8 3 13 2 10 -3 -7 -11 18 -33 28 -24 3 4 20 -8 37 -25 17 -18 37 -32
44 -32 7 0 19 -8 26 -17 13 -17 13 -17 -6 -3 -19 14 -19 14 -6 -2 7 -10 20
-18 28 -18 8 0 12 -4 9 -9 -4 -5 -3 -11 2 -13 11 -4 85 -108 77 -108 -3 0 -1
-9 5 -21 6 -11 12 -33 12 -50 1 -16 4 -29 7 -29 17 0 16 -245 -2 -290 -6 -17
-19 -69 -21 -85 -3 -22 -86 -196 -105 -219 -13 -16 -14 -18 -1 -11 11 6 10 3
-2 -12 -10 -11 -18 -25 -18 -31 0 -7 -4 -12 -10 -12 -5 0 -10 -7 -10 -15 0 -8
-5 -15 -12 -15 -6 0 -8 -3 -5 -6 4 -4 -5 -20 -18 -36 -14 -16 -25 -34 -25 -39
0 -6 -4 -7 -10 -4 -6 4 -7 -1 -3 -11 4 -11 3 -15 -5 -10 -6 3 -13 -3 -17 -14
-9 -29 -71 -100 -80 -92 -4 4 -4 -4 0 -17 5 -15 4 -21 -3 -17 -6 3 -13 -2 -16
-11 -4 -10 -27 -40 -52 -68 -25 -27 -57 -66 -71 -85 -15 -19 -42 -50 -61 -67
-19 -18 -31 -33 -28 -33 4 0 -1 -14 -9 -30 -15 -29 -15 -32 3 -55 11 -13 22
-21 26 -18 3 3 6 2 6 -4 0 -6 23 -10 54 -9 30 0 52 -2 50 -5 -2 -4 22 -9 53
-13 79 -9 104 -16 97 -28 -3 -5 0 -8 7 -7 13 2 68 -19 79 -31 8 -8 40 -27 99
-57 29 -15 56 -34 58 -40 3 -7 10 -13 16 -13 6 0 17 -7 26 -15 46 -44 96 -85
104 -85 4 0 5 -4 2 -10 -3 -5 -2 -10 3 -10 10 0 77 -64 157 -151 28 -29 53
-53 58 -51 4 1 7 -3 7 -10 0 -6 17 -27 38 -46 20 -19 30 -31 22 -27 -8 5 -4
-3 10 -17 14 -13 36 -40 50 -58 14 -18 33 -41 43 -51 9 -11 14 -19 10 -19 -4
0 8 -15 27 -34 43 -42 63 -66 55 -66 -5 0 14 -23 55 -67 14 -14 18 -23 10 -19
-13 6 -13 5 0 -6 24 -20 60 -75 54 -81 -3 -3 4 -11 16 -17 12 -6 19 -14 16
-17 -5 -6 51 -92 69 -105 6 -4 6 -8 2 -8 -5 0 15 -29 43 -65 29 -36 50 -68 47
-72 -4 -3 12 -23 34 -44 22 -22 37 -39 33 -39 -4 0 1 -7 12 -16 10 -8 13 -12
5 -8 -9 5 -12 3 -7 -5 4 -6 11 -9 16 -6 5 3 26 -9 46 -27 21 -18 34 -26 30
-18 -6 11 -4 11 6 -1 7 -9 17 -18 23 -20 5 -2 9 -8 7 -12 -1 -5 1 -6 6 -3 5 3
27 -4 49 -15 26 -13 70 -21 134 -25 91 -6 95 -6 117 18 l23 25 -55 46 c-30 26
-57 47 -61 47 -16 0 -72 75 -67 89 3 8 1 12 -5 8 -13 -8 -59 114 -68 181 -2
15 -9 47 -15 72 -6 25 -13 54 -14 65 -2 11 -6 29 -10 40 -52 142 -136 326
-147 320 -9 -6 -21 24 -14 35 3 5 0 12 -6 16 -8 5 -9 3 -4 -6 5 -9 4 -11 -3
-6 -7 4 -12 13 -12 20 0 7 -14 27 -30 45 -17 17 -27 31 -23 31 4 0 -10 17 -30
38 -21 21 -34 42 -30 46 5 4 4 6 -2 5 -5 -2 -59 46 -119 106 -59 61 -104 103
-100 95 7 -13 5 -13 -9 -1 -9 7 -14 17 -11 22 3 5 2 9 -3 9 -4 0 -27 17 -49
38 -23 20 -51 44 -64 52 -32 22 -57 43 -41 34 9 -5 12 -3 7 4 -4 7 -11 12 -17
12 -5 0 -17 8 -27 18 -10 9 -30 26 -44 36 -15 11 -25 23 -22 28 3 4 1 8 -4 8
-16 0 -36 49 -47 115 -4 22 -10 42 -14 45 -9 7 -8 26 2 36 4 4 7 15 7 25 0 9
27 97 59 196 90 274 109 337 115 384 2 15 6 31 9 35 12 20 22 168 21 324 -1
207 -16 272 -104 440 -31 59 -192 209 -224 210 -11 0 -16 3 -13 7 9 9 -52 45
-64 38 -5 -4 -9 -1 -9 5 0 6 -4 9 -9 6 -5 -3 -21 4 -37 16 -15 13 -25 18 -21
11 5 -7 0 -9 -14 -6 -16 5 -18 8 -7 15 9 6 6 7 -8 3 -12 -3 -39 1 -61 10 -21
9 -65 17 -96 19 -32 1 -60 6 -64 10 -4 4 -6 23 -4 42 3 38 -28 84 -57 84 -9 0
-24 8 -35 18 -11 9 -17 11 -12 3 5 -9 1 -9 -16 2 -44 29 -142 49 -250 52 -59
1 -113 6 -119 10 -8 5 -11 4 -7 -2z m278 -57 c149 -37 211 -75 190 -115 -26
-47 -6 -65 85 -75 90 -11 179 -38 274 -84 79 -38 110 -61 182 -132 70 -69 94
-101 122 -161 65 -142 71 -173 71 -394 0 -183 -3 -210 -29 -325 -15 -69 -62
-226 -103 -350 -42 -124 -77 -247 -78 -273 -2 -29 6 -75 19 -115 25 -78 74
-133 271 -299 235 -198 393 -384 483 -566 62 -126 87 -198 117 -347 47 -223
90 -298 227 -390 21 -14 38 -28 38 -32 0 -11 -98 -10 -161 2 -30 6 -81 24
-115 41 -104 52 -156 107 -282 298 -368 559 -699 920 -998 1090 -117 66 -187
90 -302 103 -59 7 -96 16 -99 24 -6 15 23 54 137 189 47 55 96 116 110 135 13
19 27 37 31 40 24 18 171 256 219 355 92 189 116 284 114 445 -1 80 -6 107
-32 173 -72 185 -235 316 -512 410 -122 42 -282 79 -430 101 -250 37 -262 50
-138 139 97 68 189 111 268 123 19 3 37 8 39 10 15 14 196 1 282 -20z m-244
-355 c46 -24 42 -101 -7 -126 -94 -48 -187 35 -122 109 31 34 85 41 129 17z"/>
<path d="M3605 4261 c-3 -5 -2 -12 3 -15 5 -3 9 1 9 9 0 17 -3 19 -12 6z"/>
<path d="M4080 2186 c0 -2 8 -10 18 -17 15 -13 16 -12 3 4 -13 16 -21 21 -21
13z"/>
<path d="M3970 1836 c0 -2 8 -10 18 -17 15 -13 16 -12 3 4 -13 16 -21 21 -21
13z"/>
<path d="M4536 1102 c-3 -5 1 -9 9 -9 8 0 12 4 9 9 -3 4 -7 8 -9 8 -2 0 -6 -4
-9 -8z"/>
<path d="M2248 4369 c-7 -4 -16 -5 -20 -3 -4 3 -8 0 -8 -7 0 -7 -3 -9 -6 -6
-4 4 -19 -2 -34 -13 -16 -11 -32 -20 -37 -20 -6 0 -18 -10 -29 -22 -13 -14
-14 -19 -4 -14 16 8 -1 -5 -62 -50 -21 -16 -38 -34 -38 -41 0 -7 -11 -20 -25
-29 -14 -9 -25 -20 -25 -24 0 -5 -14 -24 -31 -43 -32 -36 -49 -62 -70 -107 -6
-14 -20 -42 -31 -63 -13 -25 -21 -65 -24 -125 -2 -48 -6 -109 -9 -135 -3 -33
-1 -46 7 -41 6 4 9 1 6 -7 -6 -17 40 -147 71 -204 12 -22 32 -48 43 -58 20
-17 22 -17 43 3 14 13 21 29 18 41 -3 10 -1 25 4 32 5 6 9 28 9 49 -1 20 2 34
7 31 4 -2 7 8 8 24 1 28 26 107 29 88 0 -5 8 6 18 26 18 38 82 99 106 103 8 1
25 11 37 22 12 10 19 13 14 5 -6 -11 -2 -10 16 2 13 9 31 17 41 17 20 0 101
40 106 52 2 4 10 8 18 8 8 0 14 4 14 10 0 5 11 12 25 16 14 4 24 9 21 11 -3 3
5 20 18 37 20 26 38 64 41 86 0 3 4 11 8 18 5 6 5 12 1 12 -3 0 -2 6 4 13 9
10 8 58 -2 122 -1 11 -14 43 -29 71 -19 38 -37 56 -71 75 -25 13 -46 27 -46
30 0 4 -10 5 -22 5 -13 -1 -27 0 -33 3 -15 9 -63 8 -77 0z m130 -45 c49 -20
70 -41 98 -96 34 -66 39 -114 19 -180 -31 -109 -106 -179 -235 -219 -86 -26
-136 -57 -193 -118 -68 -72 -107 -178 -107 -290 0 -65 -14 -67 -47 -9 -69 125
-78 160 -78 318 0 142 1 146 32 212 58 124 189 276 308 358 74 50 126 57 203
24z"/>
<path d="M2126 3832 c-3 -5 1 -9 9 -9 8 0 12 4 9 9 -3 4 -7 8 -9 8 -2 0 -6 -4
-9 -8z"/>
<path d="M2005 3741 c-3 -5 -2 -12 3 -15 5 -3 9 1 9 9 0 17 -3 19 -12 6z"/>
<path d="M2355 3777 c-22 -5 -47 -12 -55 -15 -8 -3 -19 -4 -24 -3 -4 1 -14 -4
-22 -10 -8 -6 -14 -8 -14 -4 0 4 -8 1 -17 -6 -15 -12 -16 -12 -8 1 7 12 6 13
-7 3 -8 -7 -19 -9 -23 -5 -5 4 -5 1 -1 -5 5 -9 -1 -12 -24 -9 -17 2 -33 -1
-37 -7 -4 -6 -1 -7 8 -2 8 4 -2 -7 -21 -24 -33 -31 -37 -46 -23 -81 3 -8 7
-22 9 -30 2 -8 10 -20 19 -26 9 -7 17 -16 17 -21 1 -10 38 -58 38 -49 0 4 11
-5 25 -19 14 -14 33 -25 41 -25 8 0 12 -4 9 -10 -3 -6 1 -7 9 -4 9 3 16 1 16
-5 0 -6 12 -11 26 -11 17 0 23 -4 18 -12 -4 -7 -4 -10 0 -6 4 3 22 2 39 -3 52
-16 163 -17 183 -2 10 7 26 13 36 13 10 0 18 5 18 10 0 6 11 15 24 20 35 13
84 106 80 150 -7 85 -17 109 -63 158 -48 50 -160 66 -276 39z m242 -43 c106
-77 88 -246 -33 -304 -103 -50 -282 -11 -382 84 -38 35 -86 121 -77 137 13 19
93 54 190 81 126 35 256 36 302 2z"/>
</g>
</svg>
