<svg xmlns="http://www.w3.org/2000/svg" xmlns:v="https://svgstorm.com"
viewBox = "0 0 1080 1080"
width="1080"
height="1080">
<g fill="None" fill-opacity="0.0" stroke="#000000" stroke-opacity="1.00" stroke-width="0.3"><path d="
M 0.00 1080.00 
L 1080.00 1080.00
L 1080.00 0.00
L 0.00 0.00
L 0.00 1080.00
M 762.00 632.00 
C 783.05 596.98 801.18 567.05 813.33 527.33 C 825.47 487.60 828.65 429.47 819.22 388.78 C 809.79 348.09 796.29 312.70 772.08 279.92 C 747.87 247.14 726.22 225.74 691.92 204.08 C 657.62 182.43 619.74 167.82 578.00 162.00 C 536.26 156.18 478.55 161.22 440.31 176.31 C 402.07 191.39 373.56 208.04 343.25 236.25 C 312.94 264.46 294.52 289.25 277.22 326.22 C 259.92 363.19 249.10 413.35 251.00 456.00 C 252.90 498.65 263.33 543.96 283.31 579.70 C 303.28 615.43 320.67 639.95 352.25 666.75 C 383.83 693.56 413.54 708.29 453.68 721.32 C 493.81 734.36 549.27 737.37 593.00 731.00
C 596.20 744.75 600.11 758.38 600.00 773.00
C 585.83 776.51 571.81 776.84 556.93 777.93 C 542.05 779.02 523.49 777.56 509.00 777.00 C 494.51 776.44 479.28 774.13 465.98 771.02 C 452.68 767.92 440.26 764.30 427.98 760.02 C 415.69 755.75 405.05 750.62 393.77 745.23 C 382.49 739.84 372.19 734.46 361.92 728.08 C 351.66 721.70 342.69 714.98 333.25 707.75 C 323.80 700.52 315.90 693.18 307.25 684.75 C 298.60 676.33 291.21 668.48 283.70 659.30 C 276.18 650.13 269.34 641.27 262.70 631.30 C 256.05 621.34 249.88 611.75 244.23 600.77 C 238.58 589.79 233.35 579.27 228.69 567.31 C 224.04 555.34 220.30 543.29 216.67 530.33 C 213.05 517.36 210.85 503.05 209.00 489.00 C 207.15 474.95 205.62 457.87 206.00 443.00 C 206.38 428.13 207.44 411.69 209.78 397.78 C 212.12 383.87 214.31 369.84 217.99 356.99 C 221.67 344.14 225.94 332.53 230.77 320.77 C 235.60 309.01 240.26 297.97 246.31 287.31 C 252.35 276.64 258.33 266.98 265.30 257.30 C 272.28 247.62 279.07 238.69 286.77 229.77 C 294.47 220.85 302.19 212.99 310.75 204.75 C 319.31 196.51 327.94 189.58 337.25 182.25 C 346.56 174.91 355.99 168.58 366.23 162.23 C 376.47 155.88 386.47 151.28 397.70 145.69 C 408.92 140.11 420.59 136.07 433.02 132.02 C 445.46 127.98 457.55 123.84 471.07 121.07 C 484.60 118.30 500.42 116.83 515.00 116.00 C 529.58 115.17 547.37 115.26 562.00 116.00 C 576.63 116.74 592.21 118.30 605.67 121.33 C 619.13 124.36 631.66 127.73 644.07 131.93 C 656.49 136.12 667.66 140.68 679.08 145.92 C 690.49 151.17 700.34 157.14 710.75 163.25 C 721.15 169.37 730.40 175.92 739.75 183.25 C 749.10 190.58 757.84 197.20 766.25 205.75 C 774.65 214.31 782.65 221.65 790.25 230.75 C 797.85 239.86 804.55 248.80 811.30 258.70 C 818.05 268.59 824.30 278.14 829.92 289.08 C 835.55 300.01 841.08 310.41 845.78 322.22 C 850.47 334.04 854.72 346.11 857.98 359.02 C 861.23 371.94 865.06 385.30 866.78 399.22 C 868.50 413.14 869.89 430.45 870.00 445.00 C 870.11 459.55 868.89 477.16 867.00 491.00 C 865.12 504.84 862.19 519.15 859.01 532.01 C 855.82 544.86 851.18 557.04 846.69 568.69 C 842.21 580.34 836.94 591.89 831.08 602.08 C 825.23 612.27 819.41 624.21 812.75 632.75 C 806.08 641.28 800.40 658.23 789.77 653.23 C 779.15 648.23 771.94 638.10 762.00 632.00
M 875.00 903.00 
C 865.12 907.46 849.22 904.72 838.93 902.07 C 828.63 899.43 819.60 893.78 811.25 887.75 C 802.91 881.71 796.01 875.12 790.25 866.75 C 784.48 858.39 779.33 849.67 773.70 841.30 C 768.06 832.94 762.13 824.66 756.75 816.25 C 751.36 807.85 745.49 800.37 739.75 792.25 C 734.01 784.12 728.16 775.94 721.75 768.25 C 715.34 760.56 709.88 752.26 703.23 744.77 C 696.58 737.28 690.46 729.65 683.75 722.25 C 677.04 714.86 670.26 707.96 663.25 700.75 C 656.23 693.54 649.72 687.55 642.25 680.75 C 634.77 673.96 627.40 668.11 619.25 661.75 C 611.10 655.39 602.68 650.99 593.31 645.69 C 583.93 640.40 575.80 635.92 564.93 632.07 C 554.06 628.23 540.42 629.19 528.33 626.67 C 516.24 624.15 528.90 611.28 534.75 604.75 C 540.60 598.22 547.48 588.90 553.75 581.75 C 560.02 574.61 566.42 566.16 572.25 558.25 C 578.09 550.35 584.13 542.15 589.75 533.75 C 595.37 525.35 600.31 516.38 605.31 507.31 C 610.30 498.23 615.05 489.93 618.93 479.93 C 622.80 469.92 627.44 459.74 629.78 448.78 C 632.12 437.82 633.79 421.60 633.00 410.00 C 632.21 398.40 629.08 386.35 624.68 376.32 C 620.27 366.30 614.68 359.30 607.75 351.25 C 600.81 343.21 593.72 338.75 585.30 332.70 C 576.89 326.64 567.74 322.27 557.93 318.07 C 548.11 313.88 538.45 309.46 527.78 306.22 C 517.10 302.98 505.56 300.63 494.33 297.67 C 483.09 294.72 470.70 293.79 458.98 291.02 C 447.25 288.26 435.97 290.01 424.32 284.68 C 412.67 279.35 426.57 268.53 435.08 264.08 C 443.59 259.63 451.64 252.36 462.08 249.08 C 472.52 245.79 483.88 242.06 496.07 241.07 C 508.27 240.08 522.29 242.33 534.67 244.33 C 547.05 246.32 551.95 251.39 565.23 254.77 C 578.51 258.15 565.42 274.74 576.08 277.92 C 586.74 281.11 601.25 280.66 611.67 284.33 C 622.09 287.99 631.81 291.55 641.23 296.77 C 650.64 302.00 658.22 306.57 666.23 313.77 C 674.25 320.97 679.16 326.89 685.30 335.70 C 691.44 344.50 694.77 353.53 698.93 364.07 C 703.08 374.62 704.09 387.91 705.00 400.00 C 705.91 412.09 706.36 427.79 705.00 440.00 C 703.64 452.21 702.40 465.18 699.67 476.67 C 696.95 488.17 694.59 498.20 691.07 509.07 C 687.56 519.95 684.79 530.43 681.02 541.02 C 677.26 551.62 673.98 561.62 670.07 572.07 C 666.17 582.53 665.20 596.85 668.98 607.02 C 672.75 617.20 676.17 626.76 684.25 633.75 C 692.33 640.74 698.35 646.33 706.25 652.75 C 714.15 659.18 721.78 664.97 729.25 671.75 C 736.72 678.53 743.76 684.86 750.75 692.25 C 757.74 699.63 765.07 705.83 771.25 713.75 C 777.42 721.67 784.00 728.87 789.75 737.25 C 795.50 745.63 800.07 753.86 804.92 763.08 C 809.78 772.29 814.55 781.91 817.92 792.08 C 821.30 802.24 824.89 814.26 826.98 825.02 C 829.07 835.79 830.73 849.07 834.93 859.07 C 839.12 869.08 843.60 877.09 851.25 884.75 C 858.89 892.42 866.14 897.57 875.00 903.00
M 351.00 474.00 
C 329.90 451.09 323.39 410.65 331.99 379.99 C 340.60 349.34 361.53 335.41 383.25 312.25 C 404.96 289.09 449.40 297.93 450.99 335.01 C 452.59 372.08 423.10 385.61 392.92 395.92 C 362.75 406.24 351.72 445.97 351.00 474.00
M 490.00 307.00 
C 510.46 311.24 497.40 342.99 478.00 335.00 C 458.60 327.01 469.93 302.84 490.00 307.00
M 457.00 403.00 
C 471.15 405.54 480.80 420.78 480.00 435.00 C 479.20 449.22 469.80 461.38 455.32 465.32 C 440.85 469.26 422.89 465.83 409.92 459.08 C 396.95 452.32 387.81 446.34 381.70 432.31 C 375.58 418.27 395.25 412.32 408.22 409.22 C 421.20 406.13 442.30 400.37 457.00 403.00 Z"/>
</g>
<g fill="None" fill-opacity="0.0" stroke="#FCFCFC" stroke-opacity="1.00" stroke-width="0.3"><path d="
M 762.00 632.00 
C 771.94 638.10 779.15 648.23 789.77 653.23 C 800.40 658.23 806.08 641.28 812.75 632.75 C 819.41 624.21 825.23 612.27 831.08 602.08 C 836.94 591.89 842.21 580.34 846.69 568.69 C 851.18 557.04 855.82 544.86 859.01 532.01 C 862.19 519.15 865.12 504.84 867.00 491.00 C 868.89 477.16 870.11 459.55 870.00 445.00 C 869.89 430.45 868.50 413.14 866.78 399.22 C 865.06 385.30 861.23 371.94 857.98 359.02 C 854.72 346.11 850.47 334.04 845.78 322.22 C 841.08 310.41 835.55 300.01 829.92 289.08 C 824.30 278.14 818.05 268.59 811.30 258.70 C 804.55 248.80 797.85 239.86 790.25 230.75 C 782.65 221.65 774.65 214.31 766.25 205.75 C 757.84 197.20 749.10 190.58 739.75 183.25 C 730.40 175.92 721.15 169.37 710.75 163.25 C 700.34 157.14 690.49 151.17 679.08 145.92 C 667.66 140.68 656.49 136.12 644.07 131.93 C 631.66 127.73 619.13 124.36 605.67 121.33 C 592.21 118.30 576.63 116.74 562.00 116.00 C 547.37 115.26 529.58 115.17 515.00 116.00 C 500.42 116.83 484.60 118.30 471.07 121.07 C 457.55 123.84 445.46 127.98 433.02 132.02 C 420.59 136.07 408.92 140.11 397.70 145.69 C 386.47 151.28 376.47 155.88 366.23 162.23 C 355.99 168.58 346.56 174.91 337.25 182.25 C 327.94 189.58 319.31 196.51 310.75 204.75 C 302.19 212.99 294.47 220.85 286.77 229.77 C 279.07 238.69 272.28 247.62 265.30 257.30 C 258.33 266.98 252.35 276.64 246.31 287.31 C 240.26 297.97 235.60 309.01 230.77 320.77 C 225.94 332.53 221.67 344.14 217.99 356.99 C 214.31 369.84 212.12 383.87 209.78 397.78 C 207.44 411.69 206.38 428.13 206.00 443.00 C 205.62 457.87 207.15 474.95 209.00 489.00 C 210.85 503.05 213.05 517.36 216.67 530.33 C 220.30 543.29 224.04 555.34 228.69 567.31 C 233.35 579.27 238.58 589.79 244.23 600.77 C 249.88 611.75 256.05 621.34 262.70 631.30 C 269.34 641.27 276.18 650.13 283.70 659.30 C 291.21 668.48 298.60 676.33 307.25 684.75 C 315.90 693.18 323.80 700.52 333.25 707.75 C 342.69 714.98 351.66 721.70 361.92 728.08 C 372.19 734.46 382.49 739.84 393.77 745.23 C 405.05 750.62 415.69 755.75 427.98 760.02 C 440.26 764.30 452.68 767.92 465.98 771.02 C 479.28 774.13 494.51 776.44 509.00 777.00 C 523.49 777.56 542.05 779.02 556.93 777.93 C 571.81 776.84 585.83 776.51 600.00 773.00
C 600.11 758.38 596.20 744.75 593.00 731.00
C 549.27 737.37 493.81 734.36 453.68 721.32 C 413.54 708.29 383.83 693.56 352.25 666.75 C 320.67 639.95 303.28 615.43 283.31 579.70 C 263.33 543.96 252.90 498.65 251.00 456.00 C 249.10 413.35 259.92 363.19 277.22 326.22 C 294.52 289.25 312.94 264.46 343.25 236.25 C 373.56 208.04 402.07 191.39 440.31 176.31 C 478.55 161.22 536.26 156.18 578.00 162.00 C 619.74 167.82 657.62 182.43 691.92 204.08 C 726.22 225.74 747.87 247.14 772.08 279.92 C 796.29 312.70 809.79 348.09 819.22 388.78 C 828.65 429.47 825.47 487.60 813.33 527.33 C 801.18 567.05 783.05 596.98 762.00 632.00 Z"/>
</g>
<g fill="None" fill-opacity="0.0" stroke="#FDFDFD" stroke-opacity="1.00" stroke-width="0.3"><path d="
M 875.00 903.00 
C 866.14 897.57 858.89 892.42 851.25 884.75 C 843.60 877.09 839.12 869.08 834.93 859.07 C 830.73 849.07 829.07 835.79 826.98 825.02 C 824.89 814.26 821.30 802.24 817.92 792.08 C 814.55 781.91 809.78 772.29 804.92 763.08 C 800.07 753.86 795.50 745.63 789.75 737.25 C 784.00 728.87 777.42 721.67 771.25 713.75 C 765.07 705.83 757.74 699.63 750.75 692.25 C 743.76 684.86 736.72 678.53 729.25 671.75 C 721.78 664.97 714.15 659.18 706.25 652.75 C 698.35 646.33 692.33 640.74 684.25 633.75 C 676.17 626.76 672.75 617.20 668.98 607.02 C 665.20 596.85 666.17 582.53 670.07 572.07 C 673.98 561.62 677.26 551.62 681.02 541.02 C 684.79 530.43 687.56 519.95 691.07 509.07 C 694.59 498.20 696.95 488.17 699.67 476.67 C 702.40 465.18 703.64 452.21 705.00 440.00 C 706.36 427.79 705.91 412.09 705.00 400.00 C 704.09 387.91 703.08 374.62 698.93 364.07 C 694.77 353.53 691.44 344.50 685.30 335.70 C 679.16 326.89 674.25 320.97 666.23 313.77 C 658.22 306.57 650.64 302.00 641.23 296.77 C 631.81 291.55 622.09 287.99 611.67 284.33 C 601.25 280.66 586.74 281.11 576.08 277.92 C 565.42 274.74 578.51 258.15 565.23 254.77 C 551.95 251.39 547.05 246.32 534.67 244.33 C 522.29 242.33 508.27 240.08 496.07 241.07 C 483.88 242.06 472.52 245.79 462.08 249.08 C 451.64 252.36 443.59 259.63 435.08 264.08 C 426.57 268.53 412.67 279.35 424.32 284.68 C 435.97 290.01 447.25 288.26 458.98 291.02 C 470.70 293.79 483.09 294.72 494.33 297.67 C 505.56 300.63 517.10 302.98 527.78 306.22 C 538.45 309.46 548.11 313.88 557.93 318.07 C 567.74 322.27 576.89 326.64 585.30 332.70 C 593.72 338.75 600.81 343.21 607.75 351.25 C 614.68 359.30 620.27 366.30 624.68 376.32 C 629.08 386.35 632.21 398.40 633.00 410.00 C 633.79 421.60 632.12 437.82 629.78 448.78 C 627.44 459.74 622.80 469.92 618.93 479.93 C 615.05 489.93 610.30 498.23 605.31 507.31 C 600.31 516.38 595.37 525.35 589.75 533.75 C 584.13 542.15 578.09 550.35 572.25 558.25 C 566.42 566.16 560.02 574.61 553.75 581.75 C 547.48 588.90 540.60 598.22 534.75 604.75 C 528.90 611.28 516.24 624.15 528.33 626.67 C 540.42 629.19 554.06 628.23 564.93 632.07 C 575.80 635.92 583.93 640.40 593.31 645.69 C 602.68 650.99 611.10 655.39 619.25 661.75 C 627.40 668.11 634.77 673.96 642.25 680.75 C 649.72 687.55 656.23 693.54 663.25 700.75 C 670.26 707.96 677.04 714.86 683.75 722.25 C 690.46 729.65 696.58 737.28 703.23 744.77 C 709.88 752.26 715.34 760.56 721.75 768.25 C 728.16 775.94 734.01 784.12 739.75 792.25 C 745.49 800.37 751.36 807.85 756.75 816.25 C 762.13 824.66 768.06 832.94 773.70 841.30 C 779.33 849.67 784.48 858.39 790.25 866.75 C 796.01 875.12 802.91 881.71 811.25 887.75 C 819.60 893.78 828.63 899.43 838.93 902.07 C 849.22 904.72 865.12 907.46 875.00 903.00 Z"/>
</g>
<g fill="None" fill-opacity="0.0" stroke="#FCFCFC" stroke-opacity="1.00" stroke-width="0.3"><path d="
M 351.00 474.00 
C 351.72 445.97 362.75 406.24 392.92 395.92 C 423.10 385.61 452.59 372.08 450.99 335.01 C 449.40 297.93 404.96 289.09 383.25 312.25 C 361.53 335.41 340.60 349.34 331.99 379.99 C 323.39 410.65 329.90 451.09 351.00 474.00 Z"/>
</g>
<g fill="None" fill-opacity="0.0" stroke="#F9F9F9" stroke-opacity="1.00" stroke-width="0.3"><path d="
M 490.00 307.00 
C 469.93 302.84 458.60 327.01 478.00 335.00 C 497.40 342.99 510.46 311.24 490.00 307.00 Z"/>
</g>
<g fill="None" fill-opacity="0.0" stroke="#FCFCFC" stroke-opacity="1.00" stroke-width="0.3"><path d="
M 457.00 403.00 
C 442.30 400.37 421.20 406.13 408.22 409.22 C 395.25 412.32 375.58 418.27 381.70 432.31 C 387.81 446.34 396.95 452.32 409.92 459.08 C 422.89 465.83 440.85 469.26 455.32 465.32 C 469.80 461.38 479.20 449.22 480.00 435.00 C 480.80 420.78 471.15 405.54 457.00 403.00 Z"/>
</g>
<g fill="#000000" fill-opacity="1.00" stroke="None">
<path d="
M 0.00 1080.00 
L 1080.00 1080.00
L 1080.00 0.00
L 0.00 0.00
L 0.00 1080.00
M 762.00 632.00 
C 783.05 596.98 801.18 567.05 813.33 527.33 C 825.47 487.60 828.65 429.47 819.22 388.78 C 809.79 348.09 796.29 312.70 772.08 279.92 C 747.87 247.14 726.22 225.74 691.92 204.08 C 657.62 182.43 619.74 167.82 578.00 162.00 C 536.26 156.18 478.55 161.22 440.31 176.31 C 402.07 191.39 373.56 208.04 343.25 236.25 C 312.94 264.46 294.52 289.25 277.22 326.22 C 259.92 363.19 249.10 413.35 251.00 456.00 C 252.90 498.65 263.33 543.96 283.31 579.70 C 303.28 615.43 320.67 639.95 352.25 666.75 C 383.83 693.56 413.54 708.29 453.68 721.32 C 493.81 734.36 549.27 737.37 593.00 731.00
C 596.20 744.75 600.11 758.38 600.00 773.00
C 585.83 776.51 571.81 776.84 556.93 777.93 C 542.05 779.02 523.49 777.56 509.00 777.00 C 494.51 776.44 479.28 774.13 465.98 771.02 C 452.68 767.92 440.26 764.30 427.98 760.02 C 415.69 755.75 405.05 750.62 393.77 745.23 C 382.49 739.84 372.19 734.46 361.92 728.08 C 351.66 721.70 342.69 714.98 333.25 707.75 C 323.80 700.52 315.90 693.18 307.25 684.75 C 298.60 676.33 291.21 668.48 283.70 659.30 C 276.18 650.13 269.34 641.27 262.70 631.30 C 256.05 621.34 249.88 611.75 244.23 600.77 C 238.58 589.79 233.35 579.27 228.69 567.31 C 224.04 555.34 220.30 543.29 216.67 530.33 C 213.05 517.36 210.85 503.05 209.00 489.00 C 207.15 474.95 205.62 457.87 206.00 443.00 C 206.38 428.13 207.44 411.69 209.78 397.78 C 212.12 383.87 214.31 369.84 217.99 356.99 C 221.67 344.14 225.94 332.53 230.77 320.77 C 235.60 309.01 240.26 297.97 246.31 287.31 C 252.35 276.64 258.33 266.98 265.30 257.30 C 272.28 247.62 279.07 238.69 286.77 229.77 C 294.47 220.85 302.19 212.99 310.75 204.75 C 319.31 196.51 327.94 189.58 337.25 182.25 C 346.56 174.91 355.99 168.58 366.23 162.23 C 376.47 155.88 386.47 151.28 397.70 145.69 C 408.92 140.11 420.59 136.07 433.02 132.02 C 445.46 127.98 457.55 123.84 471.07 121.07 C 484.60 118.30 500.42 116.83 515.00 116.00 C 529.58 115.17 547.37 115.26 562.00 116.00 C 576.63 116.74 592.21 118.30 605.67 121.33 C 619.13 124.36 631.66 127.73 644.07 131.93 C 656.49 136.12 667.66 140.68 679.08 145.92 C 690.49 151.17 700.34 157.14 710.75 163.25 C 721.15 169.37 730.40 175.92 739.75 183.25 C 749.10 190.58 757.84 197.20 766.25 205.75 C 774.65 214.31 782.65 221.65 790.25 230.75 C 797.85 239.86 804.55 248.80 811.30 258.70 C 818.05 268.59 824.30 278.14 829.92 289.08 C 835.55 300.01 841.08 310.41 845.78 322.22 C 850.47 334.04 854.72 346.11 857.98 359.02 C 861.23 371.94 865.06 385.30 866.78 399.22 C 868.50 413.14 869.89 430.45 870.00 445.00 C 870.11 459.55 868.89 477.16 867.00 491.00 C 865.12 504.84 862.19 519.15 859.01 532.01 C 855.82 544.86 851.18 557.04 846.69 568.69 C 842.21 580.34 836.94 591.89 831.08 602.08 C 825.23 612.27 819.41 624.21 812.75 632.75 C 806.08 641.28 800.40 658.23 789.77 653.23 C 779.15 648.23 771.94 638.10 762.00 632.00
M 875.00 903.00 
C 865.12 907.46 849.22 904.72 838.93 902.07 C 828.63 899.43 819.60 893.78 811.25 887.75 C 802.91 881.71 796.01 875.12 790.25 866.75 C 784.48 858.39 779.33 849.67 773.70 841.30 C 768.06 832.94 762.13 824.66 756.75 816.25 C 751.36 807.85 745.49 800.37 739.75 792.25 C 734.01 784.12 728.16 775.94 721.75 768.25 C 715.34 760.56 709.88 752.26 703.23 744.77 C 696.58 737.28 690.46 729.65 683.75 722.25 C 677.04 714.86 670.26 707.96 663.25 700.75 C 656.23 693.54 649.72 687.55 642.25 680.75 C 634.77 673.96 627.40 668.11 619.25 661.75 C 611.10 655.39 602.68 650.99 593.31 645.69 C 583.93 640.40 575.80 635.92 564.93 632.07 C 554.06 628.23 540.42 629.19 528.33 626.67 C 516.24 624.15 528.90 611.28 534.75 604.75 C 540.60 598.22 547.48 588.90 553.75 581.75 C 560.02 574.61 566.42 566.16 572.25 558.25 C 578.09 550.35 584.13 542.15 589.75 533.75 C 595.37 525.35 600.31 516.38 605.31 507.31 C 610.30 498.23 615.05 489.93 618.93 479.93 C 622.80 469.92 627.44 459.74 629.78 448.78 C 632.12 437.82 633.79 421.60 633.00 410.00 C 632.21 398.40 629.08 386.35 624.68 376.32 C 620.27 366.30 614.68 359.30 607.75 351.25 C 600.81 343.21 593.72 338.75 585.30 332.70 C 576.89 326.64 567.74 322.27 557.93 318.07 C 548.11 313.88 538.45 309.46 527.78 306.22 C 517.10 302.98 505.56 300.63 494.33 297.67 C 483.09 294.72 470.70 293.79 458.98 291.02 C 447.25 288.26 435.97 290.01 424.32 284.68 C 412.67 279.35 426.57 268.53 435.08 264.08 C 443.59 259.63 451.64 252.36 462.08 249.08 C 472.52 245.79 483.88 242.06 496.07 241.07 C 508.27 240.08 522.29 242.33 534.67 244.33 C 547.05 246.32 551.95 251.39 565.23 254.77 C 578.51 258.15 565.42 274.74 576.08 277.92 C 586.74 281.11 601.25 280.66 611.67 284.33 C 622.09 287.99 631.81 291.55 641.23 296.77 C 650.64 302.00 658.22 306.57 666.23 313.77 C 674.25 320.97 679.16 326.89 685.30 335.70 C 691.44 344.50 694.77 353.53 698.93 364.07 C 703.08 374.62 704.09 387.91 705.00 400.00 C 705.91 412.09 706.36 427.79 705.00 440.00 C 703.64 452.21 702.40 465.18 699.67 476.67 C 696.95 488.17 694.59 498.20 691.07 509.07 C 687.56 519.95 684.79 530.43 681.02 541.02 C 677.26 551.62 673.98 561.62 670.07 572.07 C 666.17 582.53 665.20 596.85 668.98 607.02 C 672.75 617.20 676.17 626.76 684.25 633.75 C 692.33 640.74 698.35 646.33 706.25 652.75 C 714.15 659.18 721.78 664.97 729.25 671.75 C 736.72 678.53 743.76 684.86 750.75 692.25 C 757.74 699.63 765.07 705.83 771.25 713.75 C 777.42 721.67 784.00 728.87 789.75 737.25 C 795.50 745.63 800.07 753.86 804.92 763.08 C 809.78 772.29 814.55 781.91 817.92 792.08 C 821.30 802.24 824.89 814.26 826.98 825.02 C 829.07 835.79 830.73 849.07 834.93 859.07 C 839.12 869.08 843.60 877.09 851.25 884.75 C 858.89 892.42 866.14 897.57 875.00 903.00
M 351.00 474.00 
C 329.90 451.09 323.39 410.65 331.99 379.99 C 340.60 349.34 361.53 335.41 383.25 312.25 C 404.96 289.09 449.40 297.93 450.99 335.01 C 452.59 372.08 423.10 385.61 392.92 395.92 C 362.75 406.24 351.72 445.97 351.00 474.00
M 490.00 307.00 
C 510.46 311.24 497.40 342.99 478.00 335.00 C 458.60 327.01 469.93 302.84 490.00 307.00
M 457.00 403.00 
C 471.15 405.54 480.80 420.78 480.00 435.00 C 479.20 449.22 469.80 461.38 455.32 465.32 C 440.85 469.26 422.89 465.83 409.92 459.08 C 396.95 452.32 387.81 446.34 381.70 432.31 C 375.58 418.27 395.25 412.32 408.22 409.22 C 421.20 406.13 442.30 400.37 457.00 403.00 Z"/>
</g>
<g fill="#FCFCFC" fill-opacity="1.00" stroke="None">
<path d="
M 762.00 632.00 
C 771.94 638.10 779.15 648.23 789.77 653.23 C 800.40 658.23 806.08 641.28 812.75 632.75 C 819.41 624.21 825.23 612.27 831.08 602.08 C 836.94 591.89 842.21 580.34 846.69 568.69 C 851.18 557.04 855.82 544.86 859.01 532.01 C 862.19 519.15 865.12 504.84 867.00 491.00 C 868.89 477.16 870.11 459.55 870.00 445.00 C 869.89 430.45 868.50 413.14 866.78 399.22 C 865.06 385.30 861.23 371.94 857.98 359.02 C 854.72 346.11 850.47 334.04 845.78 322.22 C 841.08 310.41 835.55 300.01 829.92 289.08 C 824.30 278.14 818.05 268.59 811.30 258.70 C 804.55 248.80 797.85 239.86 790.25 230.75 C 782.65 221.65 774.65 214.31 766.25 205.75 C 757.84 197.20 749.10 190.58 739.75 183.25 C 730.40 175.92 721.15 169.37 710.75 163.25 C 700.34 157.14 690.49 151.17 679.08 145.92 C 667.66 140.68 656.49 136.12 644.07 131.93 C 631.66 127.73 619.13 124.36 605.67 121.33 C 592.21 118.30 576.63 116.74 562.00 116.00 C 547.37 115.26 529.58 115.17 515.00 116.00 C 500.42 116.83 484.60 118.30 471.07 121.07 C 457.55 123.84 445.46 127.98 433.02 132.02 C 420.59 136.07 408.92 140.11 397.70 145.69 C 386.47 151.28 376.47 155.88 366.23 162.23 C 355.99 168.58 346.56 174.91 337.25 182.25 C 327.94 189.58 319.31 196.51 310.75 204.75 C 302.19 212.99 294.47 220.85 286.77 229.77 C 279.07 238.69 272.28 247.62 265.30 257.30 C 258.33 266.98 252.35 276.64 246.31 287.31 C 240.26 297.97 235.60 309.01 230.77 320.77 C 225.94 332.53 221.67 344.14 217.99 356.99 C 214.31 369.84 212.12 383.87 209.78 397.78 C 207.44 411.69 206.38 428.13 206.00 443.00 C 205.62 457.87 207.15 474.95 209.00 489.00 C 210.85 503.05 213.05 517.36 216.67 530.33 C 220.30 543.29 224.04 555.34 228.69 567.31 C 233.35 579.27 238.58 589.79 244.23 600.77 C 249.88 611.75 256.05 621.34 262.70 631.30 C 269.34 641.27 276.18 650.13 283.70 659.30 C 291.21 668.48 298.60 676.33 307.25 684.75 C 315.90 693.18 323.80 700.52 333.25 707.75 C 342.69 714.98 351.66 721.70 361.92 728.08 C 372.19 734.46 382.49 739.84 393.77 745.23 C 405.05 750.62 415.69 755.75 427.98 760.02 C 440.26 764.30 452.68 767.92 465.98 771.02 C 479.28 774.13 494.51 776.44 509.00 777.00 C 523.49 777.56 542.05 779.02 556.93 777.93 C 571.81 776.84 585.83 776.51 600.00 773.00
C 600.11 758.38 596.20 744.75 593.00 731.00
C 549.27 737.37 493.81 734.36 453.68 721.32 C 413.54 708.29 383.83 693.56 352.25 666.75 C 320.67 639.95 303.28 615.43 283.31 579.70 C 263.33 543.96 252.90 498.65 251.00 456.00 C 249.10 413.35 259.92 363.19 277.22 326.22 C 294.52 289.25 312.94 264.46 343.25 236.25 C 373.56 208.04 402.07 191.39 440.31 176.31 C 478.55 161.22 536.26 156.18 578.00 162.00 C 619.74 167.82 657.62 182.43 691.92 204.08 C 726.22 225.74 747.87 247.14 772.08 279.92 C 796.29 312.70 809.79 348.09 819.22 388.78 C 828.65 429.47 825.47 487.60 813.33 527.33 C 801.18 567.05 783.05 596.98 762.00 632.00 Z"/>
</g>
<g fill="#FDFDFD" fill-opacity="1.00" stroke="None">
<path d="
M 875.00 903.00 
C 866.14 897.57 858.89 892.42 851.25 884.75 C 843.60 877.09 839.12 869.08 834.93 859.07 C 830.73 849.07 829.07 835.79 826.98 825.02 C 824.89 814.26 821.30 802.24 817.92 792.08 C 814.55 781.91 809.78 772.29 804.92 763.08 C 800.07 753.86 795.50 745.63 789.75 737.25 C 784.00 728.87 777.42 721.67 771.25 713.75 C 765.07 705.83 757.74 699.63 750.75 692.25 C 743.76 684.86 736.72 678.53 729.25 671.75 C 721.78 664.97 714.15 659.18 706.25 652.75 C 698.35 646.33 692.33 640.74 684.25 633.75 C 676.17 626.76 672.75 617.20 668.98 607.02 C 665.20 596.85 666.17 582.53 670.07 572.07 C 673.98 561.62 677.26 551.62 681.02 541.02 C 684.79 530.43 687.56 519.95 691.07 509.07 C 694.59 498.20 696.95 488.17 699.67 476.67 C 702.40 465.18 703.64 452.21 705.00 440.00 C 706.36 427.79 705.91 412.09 705.00 400.00 C 704.09 387.91 703.08 374.62 698.93 364.07 C 694.77 353.53 691.44 344.50 685.30 335.70 C 679.16 326.89 674.25 320.97 666.23 313.77 C 658.22 306.57 650.64 302.00 641.23 296.77 C 631.81 291.55 622.09 287.99 611.67 284.33 C 601.25 280.66 586.74 281.11 576.08 277.92 C 565.42 274.74 578.51 258.15 565.23 254.77 C 551.95 251.39 547.05 246.32 534.67 244.33 C 522.29 242.33 508.27 240.08 496.07 241.07 C 483.88 242.06 472.52 245.79 462.08 249.08 C 451.64 252.36 443.59 259.63 435.08 264.08 C 426.57 268.53 412.67 279.35 424.32 284.68 C 435.97 290.01 447.25 288.26 458.98 291.02 C 470.70 293.79 483.09 294.72 494.33 297.67 C 505.56 300.63 517.10 302.98 527.78 306.22 C 538.45 309.46 548.11 313.88 557.93 318.07 C 567.74 322.27 576.89 326.64 585.30 332.70 C 593.72 338.75 600.81 343.21 607.75 351.25 C 614.68 359.30 620.27 366.30 624.68 376.32 C 629.08 386.35 632.21 398.40 633.00 410.00 C 633.79 421.60 632.12 437.82 629.78 448.78 C 627.44 459.74 622.80 469.92 618.93 479.93 C 615.05 489.93 610.30 498.23 605.31 507.31 C 600.31 516.38 595.37 525.35 589.75 533.75 C 584.13 542.15 578.09 550.35 572.25 558.25 C 566.42 566.16 560.02 574.61 553.75 581.75 C 547.48 588.90 540.60 598.22 534.75 604.75 C 528.90 611.28 516.24 624.15 528.33 626.67 C 540.42 629.19 554.06 628.23 564.93 632.07 C 575.80 635.92 583.93 640.40 593.31 645.69 C 602.68 650.99 611.10 655.39 619.25 661.75 C 627.40 668.11 634.77 673.96 642.25 680.75 C 649.72 687.55 656.23 693.54 663.25 700.75 C 670.26 707.96 677.04 714.86 683.75 722.25 C 690.46 729.65 696.58 737.28 703.23 744.77 C 709.88 752.26 715.34 760.56 721.75 768.25 C 728.16 775.94 734.01 784.12 739.75 792.25 C 745.49 800.37 751.36 807.85 756.75 816.25 C 762.13 824.66 768.06 832.94 773.70 841.30 C 779.33 849.67 784.48 858.39 790.25 866.75 C 796.01 875.12 802.91 881.71 811.25 887.75 C 819.60 893.78 828.63 899.43 838.93 902.07 C 849.22 904.72 865.12 907.46 875.00 903.00 Z"/>
</g>
<g fill="#FCFCFC" fill-opacity="1.00" stroke="None">
<path d="
M 351.00 474.00 
C 351.72 445.97 362.75 406.24 392.92 395.92 C 423.10 385.61 452.59 372.08 450.99 335.01 C 449.40 297.93 404.96 289.09 383.25 312.25 C 361.53 335.41 340.60 349.34 331.99 379.99 C 323.39 410.65 329.90 451.09 351.00 474.00 Z"/>
</g>
<g fill="#F9F9F9" fill-opacity="1.00" stroke="None">
<path d="
M 490.00 307.00 
C 469.93 302.84 458.60 327.01 478.00 335.00 C 497.40 342.99 510.46 311.24 490.00 307.00 Z"/>
</g>
<g fill="#FCFCFC" fill-opacity="1.00" stroke="None">
<path d="
M 457.00 403.00 
C 442.30 400.37 421.20 406.13 408.22 409.22 C 395.25 412.32 375.58 418.27 381.70 432.31 C 387.81 446.34 396.95 452.32 409.92 459.08 C 422.89 465.83 440.85 469.26 455.32 465.32 C 469.80 461.38 479.20 449.22 480.00 435.00 C 480.80 420.78 471.15 405.54 457.00 403.00 Z"/>
</g>
</svg>